<svg width="136" height="65" viewBox="0 0 136 65" xmlns="http://www.w3.org/2000/svg"><g fill="none" fill-rule="evenodd"><path d="M.05 19.5V52h6.3V39.15h13.2V33.7H6.35v-8.75H21.7V19.5H.05zm26.738 0V52h21.15v-5.45h-14.85V38.3h12.7v-5.45h-12.7v-7.9h14.85V19.5h-21.15zM53.477 52V19.5h6.3v27.05h14.35V52h-20.65z" fill="#2F2F2F" fill-rule="nonzero"/><path d="M122.917 1.685c5.112 3.343 4.52 6.28 4.45 11.444-.097 7.116 1.802 5.535 5.824 10.983 6.996 9.48-2.012 12.271-6.979 18.223-7.966 9.548-4.262 21.162-19.888 19.692-10.194-.959-19.883 8.407-27.777-2.487-3.648-5.034-4.312-7.094-9.624-10.821-4.49-3.15-7.929-6.787-6.417-12.935.784-3.189 3.285-5.78 4.969-8.487 2.806-4.51 3.51-8.27 4.588-13.275C74.398 3.172 82.094-.129 92.974.951c5.728.569 10.133 1.336 15.965.478 4.77-.703 9.406-1.823 13.978.256" fill="#ED4022"/><g fill="#FFF"><path d="M109.697 33.169c.017.03.03.067.037.109.071.408-.168.878-.32 1.242a8.467 8.467 0 0 1-.348.735 3.719 3.719 0 0 1-.418.605 2.827 2.827 0 0 0-.41.75c-.107.272-.188.555-.298.826-.137.342-.339.652-.477.993-.15.37-.24.765-.422 1.121a.667.667 0 0 1-.295.31.385.385 0 0 1-.404-.039c-.19-.158-.131-.431-.067-.638.073-.237.193-.482.286-.717.129-.325.271-.644.427-.956.167-.333.391-.59.427-.983.034-.357-.118-.614-.196-.94-.093-.388-.134-.787-.225-1.176-.063-.271-.522-1.15-.042-1.271.415-.105.554.64.64.922.13.424.188.852.27 1.283.013.069.1.09.14.034.37-.513.625-1.054.836-1.663.066-.193.097-.438.224-.599.138-.176.521-.149.635.052M104.453 34.11c.076.433-.104 1-.226 1.41a6.133 6.133 0 0 1-.703 1.557 5.192 5.192 0 0 1-.52.685c-.172.19-.385.456-.627.54-.4.14-.571-.202-.667-.5-.12-.37-.209-.75-.315-1.124a9.29 9.29 0 0 0-.183-.588c-.04-.108-.113-.44-.28-.309-.054.042-.077.114-.091.183-.03.15-.072.292-.104.443-.108.497-.207.871-.321 1.272-.092.321-.16.648-.225.976-.045.224-.122.709-.294.776-.17.067-.371-.07-.45-.218-.13-.245-.04-.587.016-.83.138-.592.282-1.182.446-1.766.154-.551.38-1.094.485-1.657.035-.188.094-.443.265-.549.21-.128.584-.016.734.156.21.242.608 1.778.744 2.235.036.119.09.718.31.5.063-.064.332-.56.393-.669.198-.346.368-.568.513-.943.146-.375.206-.778.296-1.17.067-.286.19-.885.606-.691.12.056.177.16.198.282M88.875 35.026c.042.032.079.069.109.107.123.159.166.381.222.571.029.097.203 1.12.226 1.422a.07.07 0 0 0 .097.06c.115-.052.174-.178.269-.276.252-.26.478-.525.715-.8.215-.248.389-.656.691-.819.221-.118.556-.03.657.18.074.156.084.385.09.563.009.35-.044.707-.074 1.057l-.062.72c-.02.225-.018.454-.057.677-.03.176-.062.362-.16.515-.108.17-.278.04-.387-.078-.279-.301-.153-.815-.089-1.179.04-.221.082-.443.105-.667.01-.088.02-.175.027-.263.005-.078.044-.307-.032-.355-.114-.071-.381.27-.446.343-.155.17-.3.349-.44.533-.134.179-.266.36-.408.533-.113.136-.274.383-.451.422-.393.089-.624-.446-.69-.751-.053-.238-.068-.482-.084-.724-.012-.169-.014-.339-.042-.506-.01-.063-.013-.147-.069-.181-.057-.035-.11-.007-.159.025-.196.13-.256.369-.355.58-.114.243-.224.488-.331.733-.168.386-.312.782-.479 1.168a6.783 6.783 0 0 1-.272.566c-.09.164-.163.334-.255.493a.45.45 0 0 1-.22.204c-.198.075-.385-.1-.417-.298-.025-.161.07-.304.122-.449.155-.433.426-.813.623-1.227.25-.526.425-1.087.661-1.62.164-.37.353-.747.587-1.075.089-.123.192-.297.354-.33.14-.027.302.032.424.126M96.824 36.905c-.002.216-.004.362-.205.476a.354.354 0 0 1-.102.04 5.375 5.375 0 0 1-.558.078c-.106.01-.583.08-.474-.152.037-.08.106-.141.15-.217l.175-.296.34-.573c.083-.143.17-.284.248-.43.044-.084.103-.247.206-.266.264-.05.222 1.045.22 1.34zm.747.584c-.008-.451-.041-.901-.102-1.348-.065-.478-.191-.944-.255-1.422-.017-.124-.03-.256-.142-.331a.19.19 0 0 0-.011-.007c-.111-.066-.306-.044-.424-.006-.211.068-.35.386-.46.565-.19.314-.321.643-.523.947a30.83 30.83 0 0 0-.668 1.04c-.265.435-.468.907-.746 1.333-.15.23-.368.431-.488.677-.063.127-.12.33-.028.456.065.09.185.11.293.122a.525.525 0 0 0 .218-.007c.1-.031.172-.12.225-.212.125-.221.222-.46.356-.676.069-.11.135-.227.238-.307.122-.095.347-.01.49-.016.322-.012.652-.076.95-.208.075-.034.228-.155.31-.091.028.021.04.058.048.093.047.212.032.448.01.663-.013.125-.105.304-.05.425.03.067.104.1.174.108.124.014.27.013.385-.046.205-.105.157-.508.167-.702.019-.35.038-.7.033-1.05z"/><g><path d="M101.892 25.266c-.255.837-.681 1.57-1.026 2.361a9.28 9.28 0 0 0-.478 1.388c-.118.458-.12.993-.293 1.426-.052.13-.114.383-.284.38-.168-.001-.522.115-.405-.428.03-.134.062-.314.093-.45.064-.28.1-.563.172-.842.08-.314.164-.632.146-.96-.018-.343-.146-.658-.312-.948-.166-.29-.364-.557-.524-.851a3.042 3.042 0 0 1-.196-.448c-.01-.027-.015-.058-.003-.085.029-.065.168-.047.224-.046.09.002.183.017.26.07.137.096.233.304.32.447.125.203.241.411.347.626.02.04.187.375.254.527.015.033.058.036.076.005.117-.206.324-.742.39-.884.111-.235.226-.467.343-.697.054-.106.21-.521.262-.606.082-.13.213-.249.317-.25.36-.007.352.151.317.265M95.878 29.686c-.045.182-.2.303-.438.34a1.211 1.211 0 0 1-.63-.051.307.307 0 0 1-.106-.053c-.038-.033-.04-.097-.04-.153l-.002-.042a2.18 2.18 0 0 1-.001-.254 4 4 0 0 1 .057-.45 3.12 3.12 0 0 0 .025-.245c.01-.125.025-.313.047-.34.009-.006.024-.01.046-.01.026 0 .056.006.082.01l.03.005c.106.014.147.026.245.06a.964.964 0 0 1 .404.256c.162.177.222.437.276.667l.002.01c.021.09.022.174.003.25zm-.88-2.344a.209.209 0 0 1-.066-.177c.03-.257.07-.45.127-.63a1.96 1.96 0 0 1 .175-.396l.017-.03c.06-.103.099-.17.225-.177l.048-.002c.06-.004.123-.007.187-.007.211 0 .343.041.425.134.04.045.064.104.075.176a1.063 1.063 0 0 1-.24.776c-.158.193-.38.32-.697.4a.298.298 0 0 1-.276-.067zm1.721-.7a1.436 1.436 0 0 0-.063-.716c-.05-.13-.116-.277-.24-.375a.512.512 0 0 0-.08-.051c-.223-.115-.562-.127-.697-.127-.748 0-.93.531-1.142 1.406-.044.185-.104.354-.166.533-.02.059-.042.118-.062.179-.086.256-.071.533-.049.795l.005.052c.014.169.03.344.018.515a1.826 1.826 0 0 1-.04.254c-.018.08-.035.163-.042.247-.007.087-.016.172-.025.258-.034.324-.069.66.02.994.02.078.095.14.187.154.166.025.328.038.482.038.735 0 1.3-.288 1.552-.792.288-.575.087-1.29-.524-1.865l-.092-.086.114-.062c.408-.22.763-.788.844-1.35z"/></g><g><path d="M110.65 16.189c.092.111.142.474-.03.552a.164.164 0 0 1-.067.01c-.709.004-1.416.07-2.124.11a.127.127 0 0 0-.113.087c-.197.61-.297 1.24-.45 1.861a.127.127 0 0 0 .129.158l.125-.007c.12-.011.24-.022.36-.026.192-.007.445-.015.606.113.104.083.122.225.101.351-.03.186-.175.198-.33.23a4.112 4.112 0 0 1-.904.083c-.096 0-.212-.028-.282.058a.344.344 0 0 0-.067.164c-.04.255-.07.473-.104.743-.014.108-.056.353.068.358.462.02.927.034 1.389-.003.161-.013.399-.086.552-.003.086.047.08.137.084.224v.01a.326.326 0 0 1-.014.142c-.027.07-.086.085-.15.105a4.099 4.099 0 0 1-.743.161 8.212 8.212 0 0 1-1.004.06h-.468a.432.432 0 0 1-.202-.033.298.298 0 0 1-.137-.186c-.07-.248-.015-.537.052-.779.085-.308.242-.662.2-.989-.011-.08-.07-.123-.097-.197a.343.343 0 0 1 .015-.254.56.56 0 0 1 .216-.223c.04-.026.082-.049.113-.085.052-.061.104-.505.127-.624.07-.375.128-.767.159-1.153a8.56 8.56 0 0 0 .028-.613c.001-.161.037-.335.163-.448.102-.09.271-.086.4-.082.353.012.706-.01 1.057-.03.232-.013.463-.039.695-.033.212.005.5.01.647.188M89.013 20.274c.005.024.034.034.05.015.35-.441.6-.955.925-1.416.378-.535.82-.884 1.293-1.33.11-.103.327-.304.497-.253.066.02.118.074.15.136.137.268.16.63.18.936.023.312.039.623.04.936 0 .657-.03 1.313-.03 1.97 0 .324.009.647.03.97.014.222-.058.486-.28.577a.523.523 0 0 1-.168.034c-.104-1.465-.024-4.887-.15-4.848-.26-.03-1.242 1.066-1.703 1.834-.162.27-.3.564-.45.841-.069.129-.15.254-.263.348-.096.08-.321.236-.404.108-.12-.183-.148-.486-.18-.697-.082-.53-.09-1.07-.156-1.602-.039-.31-.092-.623-.22-.908-.043-.095-.047-.115-.12-.04-.055.056-.1.125-.143.19-.232.351-.244.726-.336 1.126a6.736 6.736 0 0 1-.288.925c-.255.657-.615 1.251-.917 1.882a.352.352 0 0 1-.08.12c-.037.031-.09.047-.134.026-.162-.079.075-.637.122-.751.11-.265.251-.516.37-.776.265-.578.418-1.201.605-1.81s.416-1.217.808-1.715a.298.298 0 0 1 .126-.107c.289-.1.467.563.52.749.132.473.164.971.198 1.46.015.2.028.401.045.602.006.073.038.354.063.468M98.371 19.392l-.002.004c-.02.036-.068.039-.11.04-.255.003-.423.01-.637.011-.209.002-.616.042-.63-.058-.034-.083.104-.26.179-.353a7.54 7.54 0 0 0 .295-.4c.184-.266.368-.538.525-.822.033-.06.23-.443.287-.227.045.185.037.402.047.592.02.384.027.77.052 1.153a.124.124 0 0 1-.006.06zm.67 1.689a30.79 30.79 0 0 1-.217-3.184c-.007-.419.027-.838-.123-1.238-.12-.318-.335-.012-.454.127a7.909 7.909 0 0 0-.403.512c-.25.345-.48.705-.71 1.065-.224.351-.45.703-.695 1.04-.229-.029-.35.064-.41.294-.032.12-.038.247-.067.369-.063.259-.22.474-.36.696-.168.265-.326.538-.473.815-.167.314-.348.603-.22.97.303.017.387-.292.485-.493.168-.344.341-.685.529-1.018.09-.162.185-.321.284-.477.064-.101.164-.337.274-.386a.345.345 0 0 1 .122-.022c.609-.035 1.224-.1 1.835-.07a.082.082 0 0 1 .074.061c.127.467-.12 1.94.278 2.026.474.09.279-.863.252-1.087zM104.119 18.415c-.096.959-.7 2.117-1.582 2.579-.152.08-.32-.04-.325-.213a5.59 5.59 0 0 1 .14-1.352c.116-.542.272-1.07.374-1.616.065-.345.149-.782.405-1.04a.382.382 0 0 1 .36-.12c.352.079.41.372.518.681.12.348.146.715.11 1.08zm.151-1.801c-.166-.249-.453-.545-.874-.545-.41 0-.773.03-.99.66-.08.227-.1.492-.15.73-.067.325-.106.655-.177.978-.15.68-.3 1.36-.415 2.046-.03.179-.058.357-.084.536-.015.109-.099.363-.061.465.097.26.438.396.695.375.306-.026.628-.359.858-.556.675-.578 1.356-1.312 1.55-2.208.174-.808.119-1.778-.352-2.481z"/></g><path d="M112.522 43.905l-1.277.425c-.775.258-1.55.524-2.327.773-.731.235-1.462.637-2.199.806a5.71 5.71 0 0 1-1.848.122c-.624-.062-1.221.085-1.843.212a14.174 14.174 0 0 1-3.434.275c-.992-.042-1.983.158-2.977.078-.924-.074-1.843.084-2.765.084-.345-.005-.691 0-1.037.015-.944.042-1.884.245-2.828.244-.961-.002-1.926-.055-2.883.182-.268.066-.634.053-.836.106-.147.039-.301.17-.456.21-.452.117-.874-.04-1.316.275-.132.095-.266.175-.405.174-.14 0-.268.12-.406.114-.126-.006-.24-.123-.365-.145-.074-.013-.156-.058-.195-.204a1.347 1.347 0 0 1-.025-.327c.002-.618.009-1.234.012-1.851.085-.248.11-.376.247-.4.1-.017.213.102.311.046.1-.022.192-.174.289-.211.05-.02.115.02.167 0 .607-.243 1.228-.255 1.84-.38.702 0 1.407-.358 2.108-.43.693-.071 1.393.007 2.087.031.498.017.995-.135 1.493-.186.636-.065 1.27.004 1.904-.028.648-.033 1.295-.137 1.944-.161.773-.023 1.54.123 2.313-.006.88-.145 1.762-.106 2.643-.084.781.02 1.57.11 2.341-.255.764-.362 1.518-.186 2.294-.188.601 0 1.204-.013 1.808-.14.215-.045.423-.231.638-.316.198-.079.403-.122.608-.211.492-.214.988-.366 1.484-.517.247-.075.497-.185.745-.232.1-.02.196-.016.295-.062.095-.044.208-.198.302-.208.327-.035.674-.33 1.094-.316.154.005.498-.065.638-.176.354-.283.394.901.394 1.429 0 .307.01.765-.047 1.052a.733.733 0 0 1-.038.133c-.11.27-.335.196-.492.248z"/></g></g></svg>