<svg width="180" height="32" xmlns="http://www.w3.org/2000/svg"><g fill="#FFF" fill-rule="evenodd"><path d="M177.922.64a.8.8 0 0 1 .095.265c.177.991-.421 2.132-.8 3.017-.262.61-.553 1.206-.872 1.786-.31.562-.645.985-1.045 1.468-.447.539-.762 1.173-1.024 1.82-.268.662-.47 1.35-.744 2.009-.345.83-.849 1.581-1.195 2.411-.374.898-.6 1.858-1.054 2.722-.167.317-.414.603-.738.75-.324.147-.732.133-1.01-.091-.474-.385-.328-1.048-.167-1.55.184-.576.482-1.17.715-1.741.322-.79.679-1.565 1.069-2.323.415-.808.976-1.433 1.067-2.387.083-.866-.295-1.491-.49-2.283-.232-.942-.335-1.912-.563-2.855C171.007 3 169.86.865 171.06.57c1.038-.255 1.385 1.556 1.602 2.239.326 1.03.47 2.07.673 3.116.032.168.25.219.352.082.926-1.245 1.561-2.558 2.088-4.038.166-.467.243-1.063.56-1.454.346-.428 1.304-.362 1.587.125M164.813 2.928c.19 1.05-.26 2.426-.565 3.423a14.691 14.691 0 0 1-1.758 3.78c-.388.59-.822 1.148-1.3 1.664-.43.46-.96 1.107-1.568 1.312-1 .338-1.426-.49-1.666-1.214-.298-.899-.522-1.821-.788-2.73-.14-.48-.285-.959-.458-1.428-.097-.263-.281-1.07-.7-.75-.135.102-.192.277-.227.443-.076.365-.179.711-.26 1.076a44.979 44.979 0 0 1-.803 3.09c-.229.78-.401 1.574-.563 2.37-.11.544-.303 1.721-.734 1.885-.426.162-.927-.172-1.125-.53-.326-.594-.1-1.425.041-2.016.344-1.437.705-2.87 1.113-4.29.385-1.338.95-2.655 1.214-4.023.088-.456.234-1.075.663-1.332.524-.312 1.46-.04 1.834.38.524.586 1.52 4.316 1.861 5.427.088.287.225 1.744.772 1.212.16-.154.831-1.36.986-1.623.494-.841.919-1.38 1.282-2.29.365-.912.514-1.891.74-2.843.166-.693.473-2.148 1.514-1.678.3.136.442.388.495.685M125.868 5.15c.105.08.197.168.272.261.31.385.415.925.556 1.387.072.236.507 2.72.564 3.454.01.12.135.193.244.145.287-.126.435-.434.671-.67.63-.63 1.197-1.275 1.789-1.943.536-.604.971-1.593 1.728-1.988.551-.289 1.39-.075 1.641.437.186.378.21.935.223 1.367.025.85-.107 1.716-.182 2.566l-.156 1.748c-.049.548-.045 1.103-.142 1.644-.076.429-.155.88-.398 1.25-.272.414-.698.1-.97-.187-.696-.733-.383-1.981-.222-2.864.098-.538.206-1.076.263-1.621.023-.213.05-.425.066-.638.013-.19.11-.746-.08-.861-.283-.174-.952.657-1.115.832-.386.413-.752.847-1.098 1.294-.337.435-.666.875-1.022 1.294-.282.332-.685.93-1.128 1.027-.98.214-1.558-1.084-1.725-1.826-.131-.577-.168-1.17-.209-1.759-.029-.409-.034-.822-.105-1.227-.027-.154-.033-.357-.172-.441-.142-.085-.275-.017-.397.062-.49.316-.641.895-.889 1.41a74.9 74.9 0 0 0-.827 1.779c-.42.936-.78 1.9-1.197 2.837-.208.468-.43.929-.68 1.374-.224.397-.409.81-.638 1.198-.129.217-.315.409-.55.495-.495.18-.962-.243-1.042-.725-.064-.391.176-.737.305-1.09.387-1.053 1.064-1.974 1.558-2.98.626-1.278 1.062-2.64 1.652-3.934.41-.9.881-1.815 1.467-2.61.222-.3.48-.723.885-.8.35-.068.755.075 1.06.304M104.277 4.932c-.67 2.09-1.789 3.922-2.694 5.902a22.459 22.459 0 0 0-1.254 3.47c-.31 1.144-.314 2.483-.77 3.565-.137.325-.298.957-.746.952-.44-.005-1.37.285-1.06-1.071.076-.337.16-.787.242-1.125.168-.7.264-1.409.452-2.107.21-.784.43-1.58.383-2.4-.048-.856-.384-1.645-.82-2.37-.435-.724-.956-1.392-1.375-2.127a7.423 7.423 0 0 1-.514-1.12c-.025-.068-.039-.146-.008-.212.076-.164.441-.117.588-.115.237.004.48.043.681.175.362.239.612.76.843 1.118.328.506.631 1.028.909 1.564.051.099.49.938.668 1.318.039.082.153.09.2.011.307-.514.848-1.855 1.024-2.21.29-.585.59-1.166.9-1.742.141-.264.548-1.303.687-1.515.214-.325.559-.622.83-.626.945-.016.925.38.834.665M65.682 6.42c.222.27.346 1.151-.072 1.34a.402.402 0 0 1-.164.025c-1.731.011-3.456.173-5.184.267a.308.308 0 0 0-.276.213c-.48 1.479-.725 3.012-1.098 4.519a.308.308 0 0 0 .315.385c.145-.01.278-.015.305-.018.292-.028.584-.054.876-.064.47-.016 1.087-.035 1.48.275.254.2.298.547.248.853-.074.451-.428.48-.805.557-.437.089-.88.148-1.324.179-.293.02-.588.027-.882.024-.236-.001-.519-.07-.689.14a.834.834 0 0 0-.164.398c-.096.62-.17 1.149-.253 1.805-.033.262-.137.857.165.87 1.129.049 2.262.08 3.39-.008.393-.03.974-.208 1.347-.006.21.113.196.332.206.543l.001.026a.788.788 0 0 1-.035.343c-.067.17-.21.205-.369.255-.198.062-.4.118-.602.167-.399.097-.803.17-1.21.224-.811.108-1.63.138-2.449.146-.38.003-.761.002-1.142 0-.168 0-.343-.002-.492-.08-.17-.089-.282-.267-.335-.453-.17-.602-.037-1.304.126-1.89.209-.75.592-1.61.487-2.402-.026-.197-.171-.3-.235-.48a.83.83 0 0 1 .038-.617c.11-.23.31-.406.525-.542.097-.06.2-.117.276-.205.127-.149.255-1.225.31-1.515.172-.911.312-1.862.388-2.8.04-.496.064-.993.068-1.49.003-.392.092-.813.399-1.087.247-.22.662-.21.977-.2.86.03 1.72-.023 2.579-.072.564-.032 1.128-.095 1.694-.081.518.012 1.221.024 1.58.457M145.74 9.713c-.005.527-.008.88-.51 1.157a.9.9 0 0 1-.257.099c-.457.09-.959.149-1.395.188-.265.023-1.458.195-1.185-.37.093-.192.264-.342.376-.526l.438-.719.847-1.393c.21-.346.429-.689.622-1.044.11-.203.258-.598.516-.645.66-.12.554 2.538.548 3.253zm1.867 1.419a26.585 26.585 0 0 0-.254-3.273c-.163-1.161-.478-2.293-.638-3.454-.041-.302-.074-.62-.355-.804a.475.475 0 0 0-.028-.018c-.277-.159-.764-.106-1.06-.014-.527.165-.874.938-1.147 1.373-.478.762-.805 1.562-1.31 2.3-.57.832-1.133 1.67-1.67 2.526-.663 1.057-1.169 2.203-1.865 3.238-.375.557-.919 1.046-1.22 1.643-.157.31-.298.8-.07 1.107.162.219.463.266.732.296.183.02.372.04.547-.015.248-.077.43-.291.562-.517.313-.536.554-1.118.89-1.64.172-.267.337-.553.594-.746.306-.23.869-.026 1.226-.039.805-.03 1.63-.186 2.373-.506.19-.082.573-.377.778-.221.07.052.098.142.12.227.116.515.078 1.087.024 1.61-.032.304-.262.737-.126 1.032.075.163.26.243.437.262.31.034.675.031.96-.111.513-.257.394-1.235.42-1.705.045-.85.094-1.7.08-2.551zM12.887 16.34c.013.06.082.085.12.038.856-1.072 1.467-2.32 2.26-3.438.922-1.3 2.001-2.147 3.154-3.23.267-.25.797-.738 1.213-.616.161.048.286.18.364.332.336.65.39 1.527.442 2.272.054.757.094 1.514.095 2.273.002 1.595-.073 3.189-.073 4.783 0 .788.022 1.574.073 2.36.034.537-.141 1.178-.684 1.398a1.28 1.28 0 0 1-.409.084c-.253-3.558-.058-11.87-.364-11.773-.637-.076-3.03 2.587-4.156 4.453-.397.657-.734 1.368-1.097 2.043-.168.312-.37.617-.643.845-.233.195-.784.572-.987.262-.29-.445-.36-1.18-.439-1.694-.199-1.288-.217-2.597-.38-3.89-.094-.75-.223-1.513-.538-2.206-.104-.229-.112-.277-.292-.095-.132.134-.244.302-.348.458-.566.855-.595 1.766-.82 2.737-.176.766-.42 1.515-.704 2.246-.62 1.595-1.5 3.04-2.237 4.571a.855.855 0 0 1-.196.29c-.089.077-.22.115-.325.064-.397-.19.184-1.547.299-1.824.267-.644.612-1.252.903-1.884.646-1.404 1.017-2.917 1.473-4.396.457-1.478 1.016-2.956 1.974-4.164.084-.107.178-.216.307-.26.704-.244 1.14 1.367 1.266 1.818.324 1.148.402 2.36.486 3.545.035.488.067.976.109 1.463.015.177.094.859.154 1.136M35.721 14.2l-.005.01c-.048.087-.167.094-.267.095-.625.008-1.034.024-1.557.03-.508.004-1.503.1-1.538-.143-.08-.202.257-.63.438-.856.251-.316.49-.64.72-.972.45-.647.898-1.307 1.281-1.996.081-.146.56-1.077.7-.55.11.448.091.975.115 1.435.05.934.065 1.869.128 2.802.003.049.006.1-.015.145zm1.636 4.101a74.436 74.436 0 0 1-.532-7.732c-.016-1.017.067-2.035-.3-3.006-.292-.774-.816-.03-1.107.307-.346.4-.671.817-.983 1.244-.612.837-1.17 1.713-1.731 2.586-.549.853-1.098 1.707-1.698 2.526-.559-.07-.855.156-1 .714-.078.294-.094.6-.164.895-.153.63-.539 1.153-.879 1.69a31.445 31.445 0 0 0-1.154 1.982c-.407.761-.847 1.465-.536 2.353.739.044.944-.706 1.184-1.196a46.38 46.38 0 0 1 1.29-2.472c.221-.392.452-.78.694-1.159.156-.245.399-.816.667-.936a.845.845 0 0 1 .298-.054c1.486-.084 2.987-.244 4.477-.169a.199.199 0 0 1 .18.148c.312 1.133-.294 4.712.68 4.918 1.155.219.68-2.096.614-2.639z"/><path d="M179.277 19.78c-.656.708-2.008.515-2.947.651l-7.654 1.11c-4.65.676-9.296 1.374-13.949 2.026-4.38.614-8.757 1.666-13.176 2.11-3.678.37-7.381.476-11.073.317-3.743-.16-7.32.225-11.045.556-6.842.607-13.717.848-20.584.72-5.946-.11-11.885.413-17.84.205-5.54-.194-11.047.22-16.57.22a231.96 231.96 0 0 0-6.216.039c-5.657.11-11.293.64-16.948.638-5.76-.004-11.542-.143-17.28.478-1.606.172-3.798.136-5.008.276-.882.102-1.805.448-2.732.552-2.71.305-5.24-.108-7.888.719-.792.247-1.596.456-2.43.456-.838-.001-1.606.313-2.43.296-.755-.015-1.436-.321-2.19-.38-.443-.033-.935-.15-1.164-.534C0 29.984-.001 29.673 0 29.38c.01-1.616.053-3.23.07-4.845.514-.65.666-.984 1.485-1.046.596-.044 1.275.267 1.862.12.598-.057 1.15-.454 1.73-.553.303-.05.693.054 1.001 0 3.637-.635 7.362-.666 11.033-.993 4.202 0 8.427-.94 12.626-1.127 4.154-.186 8.348.019 12.508.081 2.985.045 5.966-.353 8.951-.486 3.809-.17 7.608.01 11.41-.075 3.885-.086 7.763-.357 11.649-.42 4.63-.06 9.23.321 13.864-.015 5.268-.382 10.56-.278 15.837-.22 4.682.05 9.415.286 14.032-.67 4.58-.946 9.097-.486 13.747-.49 3.605-.002 7.213-.035 10.835-.367 1.287-.118 2.536-.606 3.824-.828 1.19-.206 2.415-.319 3.643-.552 2.948-.56 5.924-.959 8.897-1.354 1.48-.196 2.973-.483 4.46-.607.599-.05 1.175-.042 1.77-.161.57-.115 1.248-.52 1.809-.545 1.958-.091 4.04-.862 6.556-.828.926.013 2.989-.169 3.824-.46 2.125-.74 2.365 2.359 2.365 3.74 0 .805.057 2.004-.282 2.755-.061.135-.139.25-.229.347"/><path d="M49.745 11.827c-.234 2.329-1.706 5.14-3.86 6.263-.37.193-.778-.096-.792-.517-.036-1.106.108-2.206.34-3.284.284-1.317.664-2.599.914-3.923.159-.84.362-1.9.988-2.526.238-.237.543-.365.878-.291.86.19 1 .901 1.263 1.653.296.846.358 1.737.269 2.625zm.37-4.374c-.407-.604-1.107-1.324-2.134-1.324-.998 0-1.886.075-2.418 1.605-.19.549-.24 1.193-.362 1.772-.164.788-.26 1.589-.434 2.375-.366 1.65-.73 3.301-1.013 4.969-.073.433-.141.867-.203 1.301-.037.264-.242.882-.15 1.13.236.631 1.069.96 1.696.909.748-.061 1.533-.87 2.094-1.348 1.647-1.405 3.31-3.187 3.78-5.363.426-1.964.291-4.32-.856-6.026zM88.49 15.981c-.117.456-.525.757-1.15.848-.633.093-1.07.059-1.653-.125a.823.823 0 0 1-.28-.132c-.099-.083-.102-.243-.105-.384 0-.037-.001-.072-.003-.105a5.19 5.19 0 0 1-.004-.634 9.55 9.55 0 0 1 .15-1.126c.028-.157.046-.379.065-.613.026-.311.065-.781.123-.847.025-.017.065-.025.121-.025.07 0 .147.012.216.023l.077.012c.28.036.387.066.646.15.423.136.79.358 1.06.64.424.443.583 1.094.724 1.67l.005.024c.055.224.058.434.009.624zm-2.31-5.861a.509.509 0 0 1-.173-.443c.08-.64.182-1.125.334-1.574.121-.36.275-.693.458-.99l.046-.075c.156-.256.258-.425.59-.442l.125-.006c.156-.009.323-.017.49-.017.557 0 .9.104 1.116.336a.8.8 0 0 1 .197.439c.014.098.02.201.016.307a2.585 2.585 0 0 1-.645 1.633c-.415.483-.997.8-1.83 1.002a.81.81 0 0 1-.724-.17zm4.518-1.747c.1-.655.043-1.258-.167-1.792-.129-.326-.304-.693-.63-.937a1.354 1.354 0 0 0-.21-.13c-.583-.286-1.473-.316-1.828-.316-1.963 0-2.443 1.328-2.998 3.517-.117.46-.272.883-.436 1.33-.054.148-.109.297-.162.448-.227.642-.188 1.334-.129 1.988l.012.129c.039.424.08.862.049 1.29a4.364 4.364 0 0 1-.108.634c-.045.2-.091.408-.108.618-.018.215-.042.43-.065.643-.089.811-.18 1.649.05 2.487.054.194.252.348.493.383.435.065.86.097 1.264.097 1.93 0 3.415-.722 4.076-1.981.755-1.439.227-3.225-1.378-4.663l-.24-.215.3-.154c1.071-.55 2.002-1.97 2.215-3.376z"/></g></svg>