<svg width="136" height="61" xmlns="http://www.w3.org/2000/svg"><g fill-rule="nonzero" fill="none"><path d="M.054 15.54v35.079h6.8v-13.87h14.248v-5.882H6.854v-9.445h16.568V15.54H.054zm28.86 0v35.079h22.83v-5.883h-16.03v-8.904h13.709v-5.883H35.715v-8.527h16.028V15.54H28.915zm28.807 35.079v-35.08h6.8v29.197h15.49v5.883H57.72z" fill="#2F2F2F"/><path d="M123.848 1.158c4.785 3.12 4.231 5.86 4.166 10.68-.09 6.64 1.687 5.165 5.452 10.249 6.55 8.846-1.884 11.452-6.533 17.005-7.459 8.91-3.99 19.749-18.62 18.377-9.543-.895-18.613 7.845-26.003-2.321-3.415-4.697-4.037-6.62-9.01-10.098-4.203-2.94-7.423-6.334-6.008-12.071.734-2.976 3.075-5.394 4.652-7.92 2.627-4.21 3.287-7.718 4.295-12.388C78.426 2.545 85.63-.535 95.816.473c5.362.53 9.486 1.246 14.946.446 4.466-.656 8.806-1.702 13.086.239" fill="#ED4022"/><path d="M90.193 34.06c-.277.818-.741 1.534-1.117 2.308-.213.439-.387.893-.52 1.357-.129.448-.13.97-.319 1.394-.057.127-.124.374-.31.371-.182 0-.567.113-.44-.418.033-.131.067-.307.101-.44.07-.274.109-.55.187-.823.087-.307.179-.618.16-.939-.02-.335-.16-.643-.34-.927-.181-.283-.397-.544-.57-.832a2.828 2.828 0 01-.214-.438c-.011-.026-.016-.056-.003-.083.031-.063.183-.046.243-.045.098.002.2.017.284.069.149.094.253.297.348.437.136.198.262.402.378.612.021.039.203.366.276.515.016.032.063.035.083.005.127-.202.353-.726.424-.864.121-.23.246-.457.374-.682.059-.103.228-.51.285-.592.09-.127.232-.244.345-.245.392-.007.383.148.345.26m-6.057 4.32c-.05.179-.218.297-.477.333a1.46 1.46 0 01-.686-.05.35.35 0 01-.115-.051c-.042-.033-.044-.095-.044-.15l-.002-.041a1.915 1.915 0 01-.001-.248c.011-.148.032-.295.062-.44.013-.08.022-.16.027-.24.011-.122.028-.306.051-.332a.1.1 0 01.05-.01c.029 0 .061.006.09.01l.032.004c.116.014.16.026.267.06.168.048.32.134.44.25.176.172.242.427.3.652l.003.01c.022.087.024.17.003.244h0zm-.958-2.291a.193.193 0 01-.072-.173c.033-.251.076-.44.138-.616.048-.135.112-.265.19-.387l.02-.03c.065-.1.107-.166.244-.173l.052-.001a3.41 3.41 0 01.204-.007c.23 0 .373.04.463.13a.31.31 0 01.081.173.97.97 0 01-.26.758c-.173.19-.415.313-.76.392a.352.352 0 01-.3-.066zm1.873-.684a1.27 1.27 0 00-.068-.7c-.055-.128-.126-.271-.261-.367a.57.57 0 00-.088-.05c-.242-.112-.611-.124-.758-.124-.815 0-1.013.52-1.244 1.375-.047.18-.113.346-.18.52-.022.058-.046.116-.068.176-.093.25-.077.52-.053.777l.005.05c.016.166.033.337.02.504a1.618 1.618 0 01-.044.249c-.02.078-.038.16-.045.241-.008.085-.018.168-.027.252-.038.317-.076.646.021.972.022.077.104.137.204.15.18.025.357.038.525.038.8 0 1.415-.282 1.69-.774.313-.563.094-1.262-.571-1.824l-.1-.084.124-.06c.444-.216.83-.77.918-1.32v-.001z" stroke="#FFF" stroke-width=".3" fill="#FFF"/><path d="M118.484 29.075l-1.584.304c-.96.184-1.922.374-2.885.552-.906.167-1.813.455-2.727.575-.75.101-1.524.13-2.291.087-.774-.044-1.514.061-2.285.152-1.4.165-2.83.23-4.258.196-1.23-.03-2.46.113-3.692.056-1.145-.053-2.285.06-3.428.06-.428-.004-.857 0-1.286.01-1.17.03-2.336.176-3.507.175-1.191-.001-2.388-.04-3.574.13-.333.047-.787.038-1.037.076-.182.028-.373.121-.565.15-.561.083-1.084-.029-1.632.196-.164.068-.33.125-.502.124-.174 0-.333.086-.504.082-.156-.004-.297-.088-.452-.104-.092-.009-.194-.041-.242-.145a.568.568 0 01-.031-.234c.002-.441.01-.881.015-1.322.105-.177.136-.269.306-.286.124-.012.264.073.386.033.124-.016.238-.124.358-.15.062-.015.142.014.207 0 .753-.174 1.523-.183 2.281-.272.87 0 1.745-.256 2.614-.307.86-.05 1.728.005 2.588.022.618.012 1.234-.096 1.851-.133.789-.046 1.575.003 2.361-.02.804-.023 1.606-.098 2.41-.115.96-.016 1.91.088 2.869-.004 1.09-.104 2.184-.076 3.277-.06.968.014 1.947.078 2.903-.182.947-.259 1.882-.133 2.844-.135.745 0 1.493-.009 2.242-.1.267-.032.524-.165.791-.225.246-.057.5-.087.754-.151.61-.153 1.225-.261 1.84-.37.306-.053.616-.131.924-.165.124-.014.243-.011.366-.044.117-.032.257-.142.374-.149.405-.025.836-.236 1.357-.226.19.004.617-.046.79-.125.44-.202.49.643.49 1.02 0 .22.012.547-.06.752a.374.374 0 01-.046.095c-.137.193-.416.14-.61.177z" fill="#FFF"/><path d="M118.546 32.171c.019.03.033.068.04.111.077.414-.18.89-.344 1.26a8.38 8.38 0 01-.374.746 3.775 3.775 0 01-.45.613 2.823 2.823 0 00-.44.761c-.116.276-.203.563-.321.838-.147.347-.365.662-.513 1.008-.161.375-.258.776-.454 1.137a.695.695 0 01-.317.315.435.435 0 01-.435-.04c-.204-.16-.14-.437-.072-.647.079-.24.208-.49.308-.728.139-.33.291-.653.46-.97.179-.337.42-.598.458-.997.037-.362-.127-.623-.21-.953-.1-.394-.145-.799-.242-1.194-.068-.275-.562-1.166-.046-1.289.447-.107.596.65.689.935.14.43.202.865.29 1.302.014.07.108.091.15.034.398-.52.673-1.069.9-1.687.07-.195.104-.444.24-.607.149-.179.56-.152.683.052zm-21 1.761a.622.622 0 01.111.106c.126.159.17.38.228.569.03.096.208 1.115.231 1.415a.07.07 0 00.034.055c.02.012.044.014.066.005.118-.052.178-.177.276-.275.258-.259.49-.522.733-.796.22-.247.398-.653.708-.815.227-.118.57-.03.674.179.076.155.086.383.092.56.01.349-.045.704-.076 1.052l-.063.717c-.021.224-.019.452-.059.674-.03.175-.063.36-.164.513-.11.169-.285.04-.397-.078-.286-.3-.157-.811-.091-1.174.041-.22.084-.44.108-.664.01-.087.02-.174.027-.261.005-.078.045-.306-.032-.354-.117-.07-.391.269-.458.342-.159.169-.307.347-.45.53-.138.178-.274.359-.42.53-.115.136-.28.382-.462.42-.402.09-.64-.443-.707-.747-.054-.237-.07-.48-.086-.72-.012-.169-.014-.338-.043-.504-.01-.063-.014-.146-.07-.18-.06-.035-.114-.007-.164.025-.2.13-.262.367-.364.577-.117.242-.23.486-.34.73-.172.384-.32.778-.49 1.162-.084.192-.177.38-.28.564-.092.163-.166.332-.26.49a.456.456 0 01-.226.203c-.203.075-.395-.1-.428-.296-.025-.16.072-.303.125-.447.16-.431.437-.81.639-1.221.256-.524.436-1.082.678-1.613.168-.368.362-.744.602-1.07.09-.122.196-.296.363-.328.143-.027.31.031.434.125zm7.844-.597c.121-.037.322-.058.436.006a.197.197 0 01.01.006c.116.073.13.2.147.32.065.46.195.91.261 1.371.063.431.097.865.105 1.3.005.338-.014.675-.034 1.013-.01.187.04.576-.171.677a.756.756 0 01-.395.044c-.072-.008-.148-.04-.18-.104-.056-.117.039-.29.052-.41.023-.207.038-.435-.01-.64-.008-.033-.02-.069-.05-.089-.083-.062-.24.055-.318.088a2.816 2.816 0 01-.975.2c-.147.006-.378-.076-.503.016-.106.077-.174.19-.244.296-.138.208-.238.439-.366.652-.054.089-.128.174-.23.204a.573.573 0 01-.225.007c-.11-.011-.234-.03-.3-.118-.095-.121-.036-.317.028-.44.123-.237.347-.43.501-.652.286-.411.494-.866.766-1.286.222-.338.45-.673.686-1.003.207-.293.342-.61.537-.913.113-.173.256-.48.472-.545zm7.685-.597c.1.044.158.119.188.209l.018.069c.08.428-.108.99-.235 1.395a5.93 5.93 0 01-.732 1.542c-.16.24-.342.466-.541.678-.18.188-.401.451-.653.534-.417.139-.595-.2-.694-.495-.125-.366-.218-.742-.328-1.112a8.867 8.867 0 00-.19-.582c-.043-.107-.119-.436-.292-.306-.057.041-.08.113-.095.18-.031.15-.075.29-.108.44-.113.491-.216.862-.335 1.258-.095.318-.166.642-.234.967-.047.221-.127.701-.306.768-.177.066-.386-.07-.468-.216-.136-.243-.042-.581.016-.822.144-.586.294-1.17.465-1.748.16-.545.395-1.083.504-1.64.037-.186.098-.438.276-.543.219-.127.608-.016.764.154.22.24.633 1.76.775 2.212.038.118.094.711.323.495.065-.063.345-.554.409-.662.206-.342.383-.562.534-.933.152-.372.214-.77.308-1.158.07-.284.198-.876.631-.684zM117.092 18.24c.118.142.182.604-.039.704a.212.212 0 01-.086.012c-.91.006-1.819.09-2.729.14a.163.163 0 00-.145.111c-.253.777-.381 1.58-.578 2.37a.16.16 0 00.032.143c.032.04.082.061.134.059l.16-.009c.155-.014.309-.028.463-.033.247-.009.572-.02.778.144.134.106.157.287.13.447-.038.237-.225.252-.424.293a5.328 5.328 0 01-1.161.106c-.124 0-.273-.036-.363.074a.436.436 0 00-.086.208c-.051.325-.09.603-.133.947-.018.137-.072.45.087.456.594.025 1.191.043 1.785-.004.207-.017.512-.11.709-.004.11.06.103.175.108.286v.012a.412.412 0 01-.018.181c-.035.09-.11.108-.193.134-.31.097-.63.166-.954.205-.428.052-.86.077-1.29.076h-.602a.56.56 0 01-.26-.042.38.38 0 01-.175-.237c-.09-.315-.02-.684.067-.992.109-.392.31-.843.257-1.26-.015-.101-.09-.156-.125-.25a.433.433 0 01.02-.324.716.716 0 01.277-.284c.051-.033.105-.062.145-.108.067-.078.134-.644.163-.795.09-.478.165-.977.204-1.469.022-.26.034-.52.036-.78.002-.206.048-.427.21-.571.13-.115.348-.11.514-.105.453.016.907-.012 1.358-.038.298-.016.595-.05.893-.042.272.006.642.013.83.24m-28.86 6.075c.007.031.044.045.065.02.448-.583.768-1.263 1.185-1.872.484-.707 1.05-1.168 1.656-1.758.141-.136.42-.401.637-.334a.341.341 0 01.192.18c.176.354.205.832.23 1.237.03.412.05.823.052 1.237 0 .868-.039 1.735-.039 2.603 0 .429.012.855.039 1.282.018.294-.074.643-.359.763a.652.652 0 01-.215.045c-.133-1.936-.03-6.459-.192-6.407-.333-.04-1.591 1.409-2.182 2.424-.207.356-.384.745-.576 1.111-.089.17-.193.336-.337.46-.123.106-.412.312-.518.143-.154-.242-.19-.643-.23-.922-.106-.7-.116-1.414-.2-2.117-.05-.41-.118-.823-.282-1.2-.055-.125-.06-.152-.154-.053-.07.074-.128.166-.183.252-.297.463-.313.959-.43 1.488a9.11 9.11 0 01-.37 1.222c-.326.868-.787 1.653-1.174 2.487a.466.466 0 01-.103.159c-.047.04-.115.062-.171.034-.208-.104.096-.842.156-.992.14-.35.321-.682.474-1.026.34-.764.535-1.587.775-2.392.24-.805.533-1.608 1.035-2.266a.385.385 0 01.161-.142c.37-.132.599.744.667.99.169.625.21 1.283.253 1.93.02.264.036.53.058.795.008.097.049.468.08.619m11.959-1.17l-.003.007c-.028.054-.095.058-.153.06-.355.004-.59.015-.887.016-.291.003-.858.063-.877-.087-.047-.124.145-.39.25-.53.142-.195.28-.396.41-.6.256-.4.512-.809.73-1.235.047-.09.321-.666.4-.341.063.278.052.604.066.889.028.577.037 1.156.072 1.732a.2.2 0 01-.008.09h0zm.892 2.087a37.15 37.15 0 01-.298-4.093c-.01-.539.037-1.078-.169-1.592-.164-.409-.459-.015-.622.163-.194.213-.378.432-.553.659-.343.443-.658.906-.973 1.369-.308.451-.617.904-.953 1.337-.314-.037-.48.082-.563.378-.044.154-.052.317-.091.474-.087.333-.302.61-.494.895-.23.34-.447.692-.649 1.048-.229.404-.477.775-.301 1.247.415.022.53-.376.665-.634.23-.442.467-.88.725-1.309.123-.208.254-.412.39-.613.087-.13.224-.433.375-.496a.501.501 0 01.167-.028c.836-.045 1.679-.129 2.517-.09a.11.11 0 01.101.078c.174.6-.164 2.494.381 2.605.65.115.383-1.11.346-1.398h-.001zm6.581-3.275c-.117 1.187-.85 2.62-1.923 3.192-.185.099-.389-.05-.395-.264a7.037 7.037 0 01.17-1.673c.141-.67.33-1.324.455-2 .079-.426.18-.967.492-1.287a.46.46 0 01.438-.148c.428.098.498.46.63.843.145.43.177.885.133 1.336v.001zm.396-2.466c-.221-.316-.604-.692-1.166-.692-.547 0-1.032.038-1.321.838-.107.288-.134.624-.2.926-.09.412-.142.831-.237 1.24-.2.864-.4 1.727-.553 2.597-.04.227-.078.453-.113.68-.02.139-.132.461-.081.59.13.33.585.503.928.476.408-.033.838-.455 1.144-.705.901-.734 1.81-1.665 2.069-2.802.232-1.025.159-2.256-.47-3.148h0z" stroke="#FFF" stroke-width=".3" fill="#FFF"/></g></svg>