<svg width="171" height="153" viewBox="0 0 171 153" xmlns="http://www.w3.org/2000/svg" xmlns:sketch="http://www.bohemiancoding.com/sketch/ns"><title>Shape + EPIC</title><desc>Created with Sketch.</desc><g sketch:type="MSLayerGroup" fill="#fff"><path d="M0 8l8-8v153l-8-8h171l-8 8v-153l8 8h-171zm0-8h171v153h-171v-153z" sketch:type="MSShapeGroup"/><path d="M25 25.754v45.24h26.912v-6.786h-19.14v-12.934h16.24v-6.728h-16.24v-12.006h19.14v-6.786h-26.912zm42.959 28.362h6.38c7.076 0 15.138-2.088 15.138-13.63v-1.16c0-11.484-8.062-13.572-15.138-13.572h-14.152v45.24h7.772v-16.878zm0-6.786v-14.79h6.67c3.016 0 6.96 1.102 6.96 7.076v.638c0 5.974-3.944 7.076-6.96 7.076h-6.67zm37.391-21.576h-7.772v45.24h7.772v-45.24zm16.743 23.78v-2.32c0-10.208 2.088-15.428 8.526-15.428h.522c5.51 0 7.308 3.77 7.308 10.962h7.83v-1.972c0-11.02-5.22-15.776-15.602-15.776-11.31 0-16.53 6.554-16.53 22.214v2.32c0 15.66 5.22 22.214 16.53 22.214 10.382 0 15.602-4.756 15.602-15.428v-.58h-7.83c0 5.684-2.03 9.222-7.308 9.222h-.522c-6.496 0-8.526-5.22-8.526-15.428zm-97.092 33.22v45.24h7.772v-19.72h15.834v-6.728h-15.834v-12.006h18.734v-6.786h-26.506zm35.221 0v45.24h26.912v-6.786h-19.14v-12.934h16.24v-6.728h-16.24v-12.006h19.14v-6.786h-26.912zm62.017 45.24v-6.786h-17.458v-38.454h-7.772v45.24h25.23z" sketch:type="MSShapeGroup"/></g></svg>