<svg width="62" height="67" viewBox="0 0 62 67" xmlns="http://www.w3.org/2000/svg" xmlns:sketch="http://www.bohemiancoding.com/sketch/ns"><g sketch:type="MSLayerGroup" fill="#fff"><path sketch:type="MSShapeGroup" d="M0 62h62v5h-62z"/><path d="M16.324 47.064v-2.304c-3.84-.256-4.928-.64-5.376-1.088-.576-.576-.704-1.472-.704-4.288 0-3.392.192-15.04.192-15.424 1.472 0 5.376-.128 7.488-.384v-2.752c-2.24-.192-5.312-.256-7.488-.256v-4.608c0-5.568.512-8.256 1.408-9.6 1.024-1.472 2.496-2.304 4.48-2.304 2.048 0 4.672.704 6.4 2.176 1.088-1.28 1.6-2.496 1.6-3.392 0-.768-.256-1.344-.896-1.664-1.28-.64-2.88-.896-4.736-.896-2.304 0-5.632.704-8.192 2.944-3.072 2.624-4.608 5.888-4.8 14.4-.064 2.368-.448 2.816-1.408 3.072-1.28.32-2.496.576-3.456.96v1.92c.896.192 3.712.384 4.992.384 0 .448.064 11.968.064 16.704 0 1.216 0 2.432-.384 2.944-.448.768-1.792.896-4.288 1.152v2.304c2.752-.064 5.952-.128 7.296-.128 1.472 0 5.12.064 7.808.128zm27.392-3.84l-1.344-2.048c-2.496 1.6-4.544 2.56-8.192 2.56-6.016 0-9.344-4.352-9.344-11.072v-.576h16.192c1.792 0 2.24-.768 2.24-1.92 0-5.184-2.496-11.072-9.984-11.072-7.104 0-12.736 5.568-12.736 15.04 0 7.936 4.416 13.696 12.352 13.696 3.84 0 7.488-1.6 10.816-4.608zm-18.688-13.568c.576-4.608 3.264-7.552 7.296-7.552 3.52 0 6.144 2.24 6.464 7.04l-13.76.512zm35.136 17.408v-2.24c-3.2-.256-3.968-.512-4.352-1.024-.384-.448-.384-1.024-.384-3.264 0-10.368.064-27.264.064-38.4 0-1.472-.64-1.856-1.344-1.856-1.088 0-3.264.576-7.424 3.392v1.408c2.112.256 3.456 1.088 3.84 2.176.448 1.344.448 3.456.448 6.528 0 2.624.064 20.992.064 26.816 0 2.176-.192 2.88-.512 3.264-.384.448-1.28.64-4.16.96v2.24c2.496-.064 5.248-.128 6.592-.128 1.408 0 4.672.064 7.168.128z" sketch:type="MSShapeGroup"/></g></svg>
