<svg width="140" height="140" viewBox="0 0 140 140" xmlns="http://www.w3.org/2000/svg" xmlns:sketch="http://www.bohemiancoding.com/sketch/ns"><g sketch:type="MSLayerGroup" transform="translate(-650 -87) translate(650 87)" fill="none"><circle fill="#000" sketch:type="MSShapeGroup" cx="70" cy="70" r="70"/><path fill="#fff" sketch:type="MSShapeGroup" d="M38 98h63v6h-63z"/><path d="M55.361 84.064v-2.316c-3.86-.257-4.954-.643-5.405-1.094-.579-.579-.708-1.48-.708-4.311 0-3.41.193-15.12.193-15.506 1.48 0 5.405-.129 7.528-.386v-2.767c-2.252-.193-5.34-.257-7.528-.257v-4.633c0-5.598.515-8.3 1.415-9.651 1.029-1.48 2.509-2.316 4.504-2.316 2.059 0 4.697.708 6.434 2.188 1.094-1.287 1.609-2.509 1.609-3.41 0-.772-.257-1.351-.901-1.673-1.287-.643-2.895-.901-4.761-.901-2.316 0-5.662.708-8.236 2.96-3.088 2.638-4.633 5.919-4.826 14.477-.064 2.381-.45 2.831-1.415 3.088-1.287.322-2.509.579-3.474.965v1.93c.901.193 3.732.386 5.019.386 0 .45.064 12.032.064 16.793 0 1.222 0 2.445-.386 2.96-.45.772-1.802.901-4.311 1.158v2.316c2.767-.064 5.984-.129 7.335-.129 1.48 0 5.147.064 7.85.129zm27.538-3.86l-1.351-2.059c-2.509 1.609-4.568 2.574-8.236 2.574-6.048 0-9.394-4.375-9.394-11.131v-.579h16.278c1.802 0 2.252-.772 2.252-1.93 0-5.212-2.509-11.131-10.037-11.131-7.142 0-12.804 5.598-12.804 15.12 0 7.978 4.439 13.769 12.418 13.769 3.86 0 7.528-1.609 10.874-4.633zm-18.787-13.64c.579-4.633 3.281-7.592 7.335-7.592 3.539 0 6.177 2.252 6.498 7.077l-13.833.515zm35.323 17.501v-2.252c-3.217-.257-3.989-.515-4.375-1.029-.386-.45-.386-1.029-.386-3.281 0-10.423.064-27.409.064-38.604 0-1.48-.643-1.866-1.351-1.866-1.094 0-3.281.579-7.463 3.41v1.415c2.123.257 3.474 1.094 3.86 2.188.45 1.351.45 3.474.45 6.563 0 2.638.064 21.104.064 26.959 0 2.188-.193 2.895-.515 3.281-.386.45-1.287.643-4.182.965v2.252c2.509-.064 5.276-.129 6.627-.129 1.415 0 4.697.064 7.206.129z" fill="#fff" sketch:type="MSShapeGroup"/></g></svg>
