<svg width="310" height="310" viewBox="0 0 310 310" xmlns="http://www.w3.org/2000/svg" xmlns:sketch="http://www.bohemiancoding.com/sketch/ns"><title>Rectangle 23 + Shape + fel 2</title><desc>Created with Sketch.</desc><g sketch:type="MSLayerGroup" fill="#fff"><path sketch:type="MSShapeGroup" d="M85 218h140v14h-140z"/><path d="M155 296c77.872 0 141-63.128 141-141s-63.128-141-141-141-141 63.128-141 141 63.128 141 141 141zm0 14c-85.604 0-155-69.396-155-155s69.396-155 155-155 155 69.396 155 155-69.396 155-155 155z" sketch:type="MSShapeGroup"/><path d="M123.104 184.144v-5.184c-8.64-.576-11.088-1.44-12.096-2.448-1.296-1.296-1.584-3.312-1.584-9.648 0-7.632.432-33.84.432-34.704 3.312 0 12.096-.288 16.848-.864v-6.192c-5.04-.432-11.952-.576-16.848-.576v-10.368c0-12.528 1.152-18.576 3.168-21.6 2.304-3.312 5.616-5.184 10.08-5.184 4.608 0 10.512 1.584 14.4 4.896 2.448-2.88 3.6-5.616 3.6-7.632 0-1.728-.576-3.024-2.016-3.744-2.88-1.44-6.48-2.016-10.656-2.016-5.184 0-12.672 1.584-18.432 6.624-6.912 5.904-10.368 13.248-10.8 32.4-.144 5.328-1.008 6.336-3.168 6.912-2.88.72-5.616 1.296-7.776 2.16v4.32c2.016.432 8.352.864 11.232.864 0 1.008.144 26.928.144 37.584 0 2.736 0 5.472-.864 6.624-1.008 1.728-4.032 2.016-9.648 2.592v5.184c6.192-.144 13.392-.288 16.416-.288 3.312 0 11.52.144 17.568.288zm61.632-8.64l-3.024-4.608c-5.616 3.6-10.224 5.76-18.432 5.76-13.536 0-21.024-9.792-21.024-24.912v-1.296h36.432c4.032 0 5.04-1.728 5.04-4.32 0-11.664-5.616-24.912-22.464-24.912-15.984 0-28.656 12.528-28.656 33.84 0 17.856 9.936 30.816 27.792 30.816 8.64 0 16.848-3.6 24.336-10.368zm-42.048-30.528c1.296-10.368 7.344-16.992 16.416-16.992 7.92 0 13.824 5.04 14.544 15.84l-30.96 1.152zm79.056 39.168v-5.04c-7.2-.576-8.928-1.152-9.792-2.304-.864-1.008-.864-2.304-.864-7.344 0-23.328.144-61.344.144-86.4 0-3.312-1.44-4.176-3.024-4.176-2.448 0-7.344 1.296-16.704 7.632v3.168c4.752.576 7.776 2.448 8.64 4.896 1.008 3.024 1.008 7.776 1.008 14.688 0 5.904.144 47.232.144 60.336 0 4.896-.432 6.48-1.152 7.344-.864 1.008-2.88 1.44-9.36 2.16v5.04c5.616-.144 11.808-.288 14.832-.288 3.168 0 10.512.144 16.128.288z" sketch:type="MSShapeGroup"/></g></svg>