<svg width="161" height="57" viewBox="0 0 161 57" xmlns="http://www.w3.org/2000/svg" xmlns:sketch="http://www.bohemiancoding.com/sketch/ns"><g sketch:type="MSLayerGroup" fill="#000"><g sketch:type="MSShapeGroup"><path d="M159.316 28.777c.039.068.068.148.084.241.158.901-.375 1.938-.713 2.742-.233.554-.492 1.095-.776 1.623-.276.511-.575.895-.931 1.334-.398.49-.679 1.066-.912 1.654-.239.602-.42 1.226-.663 1.825l-1.064 2.191c-.333.816-.534 1.688-.939 2.473-.149.288-.368.548-.657.682-.289.134-.652.121-.899-.083-.423-.35-.293-.952-.15-1.409.164-.523.43-1.063.637-1.582.287-.718.605-1.422.952-2.111.37-.734.87-1.302.951-2.169.074-.787-.263-1.355-.437-2.075-.207-.855-.299-1.737-.501-2.594-.142-.599-1.164-2.539-.095-2.807.925-.232 1.234 1.414 1.427 2.035.29.936.418 1.881.599 2.832.029.152.223.199.314.075.825-1.132 1.39-2.325 1.86-3.67.148-.424.216-.966.499-1.321.308-.389 1.161-.328 1.414.114"/><path d="M147.642 30.856c.169.954-.232 2.205-.503 3.11-.363 1.213-.884 2.378-1.566 3.436-.345.535-.731 1.042-1.158 1.511-.381.419-.855 1.006-1.396 1.193-.89.307-1.27-.446-1.484-1.104-.265-.816-.465-1.655-.701-2.48-.125-.436-.254-.872-.408-1.298-.086-.239-.25-.973-.624-.682-.12.093-.17.252-.201.403l-.231.978c-.239 1.098-.461 1.923-.715 2.808-.204.709-.357 1.431-.501 2.154-.099.495-.27 1.564-.653 1.713-.38.147-.826-.156-1.002-.482-.29-.539-.089-1.294.037-1.831.306-1.306.628-2.608.991-3.898.343-1.216.846-2.413 1.081-3.656.078-.415.208-.978.59-1.21.466-.284 1.3-.037 1.633.344.467.533 1.354 3.923 1.657 4.932.079.261.201 1.585.688 1.101.141-.14.74-1.236.877-1.474.441-.765.819-1.254 1.142-2.081.324-.829.457-1.718.659-2.583.147-.63.421-1.952 1.347-1.525.268.124.394.352.442.622"/><path d="M112.958 32.876c.093.071.176.152.243.237.276.35.369.841.495 1.261.064.214.451 2.472.502 3.138.008.109.12.176.218.132.256-.115.387-.394.598-.61.561-.573 1.065-1.158 1.593-1.765.477-.549.865-1.448 1.539-1.807.491-.262 1.238-.068 1.461.397.166.344.187.85.199 1.242.022.773-.095 1.56-.163 2.332l-.139 1.588c-.044.498-.041 1.003-.126 1.494-.068.39-.138.8-.355 1.137-.242.376-.621.09-.864-.171-.619-.666-.341-1.8-.197-2.602.087-.49.183-.978.234-1.474l.058-.58c.012-.173.099-.678-.07-.782-.253-.158-.849.597-.994.756-.343.376-.669.77-.977 1.176-.3.395-.594.795-.911 1.176-.251.301-.61.845-1.004.933-.873.194-1.387-.985-1.537-1.658-.116-.525-.149-1.063-.186-1.598-.026-.372-.03-.747-.093-1.115-.024-.14-.029-.325-.153-.401-.127-.078-.245-.015-.354.056-.436.288-.571.814-.791 1.282-.252.535-.498 1.074-.736 1.616-.375.851-.694 1.726-1.066 2.578-.185.425-.383.844-.607 1.249-.199.36-.363.735-.567 1.088-.115.198-.28.372-.49.45-.441.164-.856-.22-.927-.659-.057-.355.156-.67.271-.99.344-.957.947-1.794 1.387-2.709.558-1.162.947-2.398 1.471-3.575.365-.819.785-1.65 1.307-2.372.197-.273.428-.657.788-.728.311-.061.672.069.944.277"/><path d="M93.731 32.677c-.596 1.9-1.593 3.565-2.399 5.363-.456 1.017-.83 2.073-1.116 3.153-.276 1.04-.28 2.257-.686 3.24-.122.295-.265.87-.664.865-.393-.005-1.221.259-.945-.973l.216-1.022c.15-.636.235-1.28.402-1.915.187-.711.382-1.435.341-2.18-.043-.778-.342-1.495-.73-2.153-.388-.658-.851-1.266-1.225-1.934-.182-.326-.33-.665-.457-1.017-.022-.062-.035-.133-.007-.193.068-.149.393-.107.524-.105.21.004.427.039.606.159.323.216.545.691.751 1.015.292.46.562.934.809 1.421.046.09.437.852.595 1.198.035.075.136.082.177.01.274-.467.756-1.686.913-2.008.259-.532.526-1.06.801-1.583.126-.24.488-1.184.613-1.377.19-.295.497-.565.739-.57.841-.014.823.346.742.605"/><path d="M59.361 34.03c.198.246.308 1.046-.064 1.218l-.147.022c-1.541.01-3.077.158-4.616.243-.113.006-.211.082-.246.193-.428 1.344-.645 2.738-.977 4.107-.045.185.095.361.279.35l.272-.016c.26-.025.52-.049.781-.058.419-.014.968-.032 1.318.25.226.182.265.497.22.775-.066.41-.381.436-.717.506-.389.081-.783.135-1.179.162-.261.018-.524.025-.786.023-.21-.002-.462-.064-.614.126-.081.102-.126.232-.146.362-.086.563-.152 1.044-.226 1.64-.03.238-.121.779.148.791 1.005.044 2.014.074 3.018-.007.351-.028.868-.19 1.201-.006.187.103.174.302.183.494l.001.023c.007.105.007.214-.031.311-.06.155-.188.187-.328.231l-.536.152c-.355.088-.716.155-1.078.204-.723.098-1.453.125-2.181.132l-1.017.001c-.15 0-.306-.002-.439-.073-.152-.081-.251-.243-.298-.412-.152-.547-.033-1.185.112-1.718.186-.681.527-1.462.434-2.182-.023-.179-.153-.273-.209-.436-.062-.18-.046-.39.033-.561.098-.21.276-.369.467-.492.087-.056.179-.107.246-.187.113-.135.227-1.114.276-1.377.153-.828.278-1.692.345-2.544.036-.451.057-.903.061-1.355.003-.355.082-.739.355-.987.22-.2.589-.191.87-.181.766.026 1.532-.022 2.296-.066.503-.029 1.005-.086 1.51-.074.461.011 1.087.022 1.407.415"/><path d="M130.655 37.022c-.004.478-.007.8-.454 1.052l-.228.09c-.407.082-.854.135-1.243.17-.236.022-1.299.177-1.055-.336.082-.174.235-.31.335-.478l.39-.653.755-1.266c.187-.314.382-.626.554-.949.098-.184.23-.544.46-.586.587-.109.493 2.306.487 2.956m1.663 1.289c-.016-.995-.09-1.989-.226-2.974-.145-1.056-.426-2.084-.568-3.139-.037-.275-.066-.564-.316-.731l-.025-.016c-.247-.145-.68-.097-.944-.013-.47.15-.779.852-1.021 1.248-.426.692-.718 1.42-1.167 2.09-.508.757-1.009 1.518-1.487 2.295-.59.961-1.041 2.003-1.661 2.943-.334.506-.818.95-1.087 1.493-.139.281-.265.726-.062 1.006.145.199.413.242.653.269.162.018.33.036.487-.014.221-.07.383-.264.5-.469.279-.488.493-1.016.793-1.491.153-.242.3-.502.528-.677.273-.21.774-.024 1.092-.035.717-.027 1.452-.169 2.113-.46.169-.074.51-.342.693-.201.061.048.088.129.107.206.104.469.07.988.021 1.464-.028.276-.233.67-.112.938.067.147.232.22.389.238.276.031.602.029.856-.101.457-.233.35-1.122.373-1.549.041-.772.084-1.545.072-2.319"/><path d="M12.344 43.045c.011.054.073.076.107.034.762-.974 1.306-2.108 2.012-3.124.821-1.182 1.782-1.951 2.809-2.935.238-.228.711-.671 1.08-.56.144.043.256.165.325.302.299.591.347 1.388.394 2.065.047.688.083 1.376.084 2.065.002 1.45-.065 2.898-.065 4.347 0 .716.02 1.43.065 2.144.031.489-.125 1.071-.609 1.271-.115.048-.241.069-.364.076-.226-3.233-.052-10.787-.324-10.699-.567-.069-2.699 2.352-3.701 4.047-.353.598-.653 1.244-.977 1.857-.15.284-.329.561-.573.768-.207.177-.698.519-.879.238-.259-.404-.321-1.072-.391-1.539-.177-1.171-.193-2.36-.338-3.535-.084-.682-.199-1.375-.48-2.005-.093-.208-.1-.252-.26-.087-.118.122-.217.274-.31.417-.504.776-.53 1.605-.73 2.487-.158.696-.374 1.377-.627 2.041-.553 1.449-1.335 2.762-1.992 4.154-.045.097-.095.194-.175.264-.079.069-.196.104-.29.058-.353-.174.164-1.406.266-1.657.238-.586.545-1.138.804-1.713.576-1.276.906-2.651 1.313-3.994.406-1.343.904-2.686 1.757-3.784.075-.097.159-.196.273-.237.627-.221 1.015 1.242 1.128 1.652.289 1.044.358 2.145.433 3.222.031.443.059.887.096 1.33.014.161.084.78.137 1.032"/><path d="M32.679 41.099l-.005.01c-.042.078-.148.085-.237.086l-1.387.027c-.453.005-1.339.091-1.37-.13-.072-.183.229-.572.39-.778.224-.287.437-.581.642-.883.4-.587.799-1.187 1.14-1.814.073-.133.499-.979.623-.501.099.408.082.886.104 1.305.044.849.058 1.698.113 2.546l-.013.132m1.457 3.727c-.175-1.47-.303-2.946-.382-4.425-.047-.866-.077-1.734-.091-2.601-.015-.925.059-1.849-.267-2.731-.26-.704-.727-.027-.987.279-.307.363-.597.742-.875 1.13-.545.761-1.042 1.557-1.542 2.35-.489.776-.978 1.552-1.512 2.296-.498-.063-.761.142-.892.649l-.145.814c-.137.573-.48 1.047-.783 1.536-.364.587-.707 1.188-1.028 1.8-.363.692-.754 1.331-.477 2.138.658.04.841-.642 1.054-1.086.364-.759.74-1.512 1.148-2.247.198-.356.403-.708.619-1.053.139-.222.355-.742.595-.85.083-.038.175-.043.265-.049 1.323-.077 2.66-.222 3.986-.154.076.004.141.058.161.134.278 1.03-.262 4.282.605 4.47 1.029.199.606-1.905.547-2.398"/><path d="M157.898 46.762l-6.816 1.01c-4.141.614-8.279 1.248-12.422 1.84-3.9.558-7.799 1.514-11.734 1.918-3.275.336-6.573.433-9.861.289-3.333-.146-6.519.204-9.836.504-6.093.552-12.215.771-18.331.655-5.295-.101-10.584.375-15.887.186-4.933-.176-9.837.201-14.756.201-1.845-.014-3.69-.002-5.535.035-5.038.101-10.057.583-15.093.58-5.13-.003-10.279-.13-15.388.435-1.43.157-3.382.124-4.46.251-.785.093-1.607.406-2.433.502-2.413.277-4.667-.098-7.025.653-.705.225-1.421.414-2.164.414-.746 0-1.43.284-2.164.27-.673-.013-1.28-.292-1.952-.345-.393-.031-.832-.138-1.036-.486-.134-.228-.137-.511-.136-.778.008-1.468.047-2.935.063-4.403.457-.59.593-.894 1.321-.95.531-.041 1.136.242 1.658.108.533-.051 1.024-.412 1.541-.502h.892c3.239-.578 6.556-.606 9.825-.903 3.742 0 7.504-.853 11.244-1.024 3.7-.169 7.434.017 11.139.074 2.659.041 5.313-.321 7.972-.442 3.392-.154 6.776.009 10.162-.067 3.459-.078 6.913-.325 10.373-.383 4.124-.054 8.22.292 12.347-.013 4.691-.347 9.404-.253 14.104-.201 4.169.046 8.384.26 12.496-.608 4.079-.86 8.101-.442 12.242-.446 3.21-.002 6.424-.032 9.649-.334 1.146-.107 2.259-.55 3.406-.752 1.059-.187 2.15-.29 3.244-.502 2.626-.51 5.276-.871 7.924-1.23 1.318-.178 2.647-.44 3.972-.552.533-.045 1.046-.038 1.577-.146.507-.104 1.111-.471 1.61-.495 1.744-.082 3.597-.783 5.838-.752.825.011 2.662-.154 3.406-.418 1.892-.672 2.106 2.144 2.106 3.399 0 .731.052 1.821-.251 2.503-.054.123-.123.227-.204.316-.584.643-1.788.468-2.624.591z"/><path d="M45.168 38.943c-.208 2.117-1.519 4.672-3.437 5.692-.33.176-.694-.088-.706-.47-.032-1.005.096-2.004.303-2.984.253-1.196.591-2.361.814-3.565.141-.762.323-1.726.88-2.295.211-.216.484-.332.781-.265.766.173.891.819 1.125 1.503.263.769.319 1.578.239 2.385m.329-3.975c-.362-.549-.985-1.203-1.901-1.203-.888 0-1.679.069-2.153 1.459-.17.498-.215 1.084-.322 1.61-.147.716-.232 1.444-.387 2.158-.326 1.5-.65 3-.901 4.516-.065.393-.126.787-.181 1.183-.033.24-.216.801-.134 1.026.21.574.951.873 1.51.826.666-.056 1.366-.791 1.865-1.226 1.467-1.277 2.947-2.895 3.367-4.873.379-1.785.259-3.926-.763-5.477"/><path d="M79.673 42.718c-.105.414-.469.688-1.025.771-.564.084-.954.054-1.472-.114-.091-.029-.184-.064-.249-.12-.088-.076-.092-.221-.094-.35l-.003-.095c-.012-.189-.013-.383-.003-.576.019-.339.073-.678.133-1.024.025-.142.041-.344.058-.557.023-.283.058-.71.11-.77l.107-.022.192.021.069.01c.25.033.345.061.575.136.377.124.703.326.944.582.377.402.519.994.644 1.517l.005.023c.049.203.051.394.007.567m-2.058-5.326c-.117-.11-.172-.253-.154-.402.07-.582.162-1.023.297-1.431.108-.327.245-.63.408-.899l.041-.069c.139-.233.23-.386.525-.401l.112-.006.437-.016c.495 0 .802.094.994.306.093.102.151.236.175.398l.015.279c-.019.554-.212 1.053-.574 1.483-.37.439-.888.728-1.63.911-.235.057-.485-.005-.644-.154m4.023-1.587c.089-.596.039-1.144-.149-1.629-.114-.297-.271-.63-.561-.852l-.187-.117c-.519-.26-1.312-.289-1.629-.289-1.748 0-2.175 1.208-2.67 3.196-.104.418-.242.802-.388 1.21l-.144.406c-.202.583-.167 1.212-.115 1.806l.01.117c.035.385.071.783.044 1.172-.014.194-.056.388-.096.576-.04.182-.081.371-.096.562l-.058.585c-.079.737-.161 1.498.045 2.259.047.177.224.317.438.349.387.058.766.088 1.126.088 1.718 0 3.041-.656 3.63-1.8.673-1.307.202-2.931-1.227-4.237l-.214-.195.267-.141c.954-.5 1.783-1.79 1.973-3.067"/></g><path d="M26.609 14.012l.017.336.111.511.093.163.353.318.172.075.216.001.215-.023.163-.093.239-.265.106-1.196.138-2.207.08-.088c.132.005.72-.025.839-.044.048-.002.452-.084.595-.115.095-.017.392-.093.415-.106l.411-.19.327-.185.41-.442c.056-.075.28-.387.313-.449l.15-.344.146-.428.066-.34-.014-.492-.035-.443c-.017-.095-.158-.497-.198-.579-.001-.012-.256-.299-.358-.402l-.088-.08-.803-.643-.349-.234-.172-.075c-.207-.049-.923-.18-1.02-.199l-.432.022-.583.114-.663.203-.423.19-.163.093-.158.189-.045.76.017.336c.011.204.023 1.826.022 2.03.006.12.068 1.066.062 1.187.004.084-.016.854-.027 1.095l-.044.772-.102 1.267zm1.722-4.321l-.031-.587.005-1.527.08-.088.495-.194.287-.027.312-.004.172.075.437.314.441.398.019.131-.006.121c-.009.061-.114.355-.145.44-.054.111-.26.542-.305.605-.022.037-.193.226-.239.265-.115.102-.462.361-.486.362-.023.013-.322.041-.43.046l-.421-.002-.088-.08-.097-.247zm6.545 4.504l.004.084.115.595c.013.023.081.164.206.266l.113.09.299.201.172.075.264-.014.163-.093.239-.265.102-1.279.058-.508.137-.596.128-.776.071-.256c.033-.05.261-.302.318-.353l.406-.274.259-.098.667-.119.143-.019.109.006.512.142.084-.004.163-.093.251-.265.075-.172-.014-.264-.097-.247-.365-.318-.172-.075-.428-.146-.424-.062-.336.017-.415.106-.767.04c-.016-.071-.082-.428-.11-.499l-.093-.163c-.039-.058-.228-.217-.265-.239l-.345-.162-.34-.066-.084.004-.343.102-.079.1-.107 1.184-.089 1.531c-.006.109-.009.986-.027 1.095l-.137.608-.023 1.179zm7.922-4.139l.035.671c.002.048.087.512.119.667l.111.511.097.247.278.49.274.406.458.481.265.251.349.234.26.155.172.075.68.133c.073.008.963.022 1.275.018l.336-.017c.095-.017.827-.271.922-.3l.415-.106.49-.278.08-.088.075-.184c-.002-.048-.081-.392-.11-.499l-.093-.163-.088-.08-.26-.155-.172-.075-.504.014-.515.039-.747.207c-.035.014-.512.099-.667.119l-.084.004-.604-.053c-.073-.02-.43-.17-.517-.226-.025-.011-.214-.181-.265-.239-.063-.057-.243-.288-.269-.323l-.097-.247c-.017-.095-.002-.493-.006-.577l.314.02 1.36.037c.144.005 1.371.013 1.515.005.109.006.927.036 1.023.031l.312-.004.275-.026c.048-.002.225-.072.247-.097l.159-.177.087-.173.146-.428.062-.424-.016-.54c-.006-.108-.104-.379-.105-.391-.028-.083-.347-.655-.487-.816-.038-.046-.468-.444-.618-.557-.088-.08-.388-.292-.438-.326l-.703-.348-.342-.102-.256-.071c-.085-.02-.448-.061-.508-.058l-.42.022-.679.119-.247.097-.411.19-.486.362c-.092.077-.542.449-.644.55l-.092.089-.234.349-.155.26-.226.517-.071.256c-.019.097-.06.46-.057.52zm2.075-.541l.008-.085.155-.26.318-.353c.069-.052.348-.246.418-.274.093-.053.624-.261.742-.291l.131-.019.121.006c.073.008.461.084.535.116.122.042.592.282.678.325l.177.159.185.327.023.215-.001.216c-.01.037-.124.163-.159.177l-.42.022h-1.611c-.049-.009-.531-.044-.688-.048l-.508-.058-.089-.092-.016-.083zm8.206 2.458l-.099.173.016.312.046.19c.042.106.423.507.694.625.074.032.375.269.45.325l.433.23.605.305.428.146.34.066h.228l.203-.023c.047-.014.446-.216.574-.282l.406-.274.08-.088.229-.445.075-.172.233-.601.066-.34-.044-.851-.097-.247-.105-.163-.274-.406-.088-.08-.349-.234c-.234-.108-1.317-.593-1.562-.676l-.265-.251-.009-.168.071-.256c.032-.074.2-.323.234-.349l.418-.274.247-.097c.13-.043.712-.181.83-.212l.083-.016.085.008c.048-.002.387.052.424.062l.18-.009.08-.088.075-.172.047-.255-.002-.048-.02-.155-.142-.185c-.015-.059-.204-.23-.392-.376l-.234-.108-.543-.044-.385-.016-.252.013c-.155.02-.62.104-.679.119l-.495.194-.163.093-.243.181-.318.353-.309.533-.075.172c-.02.073-.065.376-.062.424l.01.432.033.407c.001.024.059.201.098.259l.093.163c.114.114.619.569.706.636.038.034.41.255.521.309l.344.15.613.221c.062.033.239.204.265.239l.021.167-.003.18c-.02.073-.181.442-.226.517-.045.05-.261.302-.33.354-.034.038-.268.17-.327.185l-.119.018-.132-.005-.344-.15-.26-.155-.437-.314c-.112-.066-.409-.231-.445-.229-.061-.009-.207-.049-.375-.053l-.215.023c-.085-.008-.128.079-.164.081zm7.989-2.868l.035.671c.002.048.087.512.119.667l.111.511.097.247.278.49.274.406.458.481.265.251.349.234.26.155.172.075.68.133c.073.008.963.022 1.275.018l.336-.017c.095-.017.827-.271.922-.3l.415-.106.49-.278.08-.088.075-.184c-.002-.048-.081-.392-.11-.499l-.093-.163-.088-.08-.26-.155-.172-.075-.504.014-.515.039-.747.207c-.035.014-.512.099-.667.119l-.084.004-.604-.053c-.073-.02-.43-.17-.517-.226-.025-.011-.214-.181-.265-.239-.063-.057-.243-.288-.269-.323l-.097-.247c-.017-.095-.002-.493-.006-.577l.314.02 1.36.037c.144.005 1.371.013 1.515.005.109.006.927.036 1.023.031l.312-.004.275-.026c.048-.002.225-.072.247-.097l.159-.177.087-.173.146-.428.062-.424-.016-.54c-.006-.108-.104-.379-.105-.391-.028-.083-.347-.655-.487-.816-.038-.046-.468-.444-.618-.557-.088-.08-.388-.292-.438-.326l-.703-.348-.342-.102-.256-.071c-.085-.02-.448-.061-.508-.058l-.42.022-.679.119-.247.097-.411.19-.486.362c-.092.077-.542.449-.644.55l-.092.089-.234.349-.155.26-.226.517-.071.256c-.019.097-.06.46-.057.52zm2.075-.541l.008-.085.155-.26.318-.353c.069-.052.348-.246.418-.274.093-.053.624-.261.742-.291l.131-.019.121.006c.073.008.461.084.535.116.122.042.592.282.678.325l.177.159.185.327.023.215-.001.216c-.01.037-.124.163-.159.177l-.42.022h-1.611c-.049-.009-.531-.044-.688-.048l-.508-.058-.089-.092-.016-.083zm8.204 4.045l.031.599c.002.036.071.213.097.247l.165.16.437.314.184.075.348-.018.163-.093.08-.088.075-.172.203-.948.071-.256.062-.424.115-1.016.066-.352.075-.172c.087-.173.359-.716.38-.777l.155-.26c.056-.075.341-.378.41-.442l.322-.281.163-.093.331-.101c.047-.014.444-.251.49-.278l.252-.013c.061.021.307.116.356.15l.093.163.031.599c-.011.025-.046.507-.049.676-.018.121-.112 1.076-.106 1.196-.011.025.007.372.014.504.004.072.022.432.038.503l.094.187.266.263.225.157.21.109.168.003.167-.021.163-.093.08-.088.075-.172c.022-.037.073-.22.071-.256l-.004-.084c.023-.254.189-2.366.2-2.631l.001-.204-.023-.215c-.002-.048-.078-.345-.106-.427-.002-.036-.071-.213-.097-.247-.014-.047-.147-.281-.185-.327l-.181-.243-.177-.159c-.063-.057-.312-.212-.349-.234-.074-.044-.431-.206-.517-.226-.049-.021-.403-.123-.524-.141l-.34-.066-.257-.083-.084.004-.582.126c-.035.014-.446.204-.574.282-.117.054-.572.318-.666.371l-.406.274-.083.016-.085-.008-.437-.314-.172-.075-.352-.066h-.228l-.191.022c-.035.014-.149.14-.159.177l.007 4.988zm11.269-1.043l.038.503.097.247.093.163.177.159.26.155.172.075.256.071.336-.017c.06-.003.536-.1.595-.115l.667-.119c.167-.021.938.011 1.103-.057l.163-.093.159-.177.075-.172-.003-.288-.048-.226-.168-.22-.25-.179-.172-.075-.272-.154-.172-.075-.168-.003-.167.021-.163.093-.923.048-.088-.08c-.013-.023-.04-.539-.05-.731-.014-.264-.054-1.043-.047-1.127-.014-.264.013-.914.036-.927l.08-.088 1.594-.083.175-.093.238-.277.071-.256-.013-.252-.181-.243-.177-.159c-.086-.044-.455-.205-.529-.225-.049-.021-.339-.054-.424-.062l-.42.022-.256-.071-.028-.299-.004-.3c-.003-.06.035-.483.053-.592l.129-.764-.017-.336-.093-.163-.177-.171-.26-.155-.268-.07-.34-.066-.084.004-.163.093-.159.177-.127.8-.098.895-.063.869-.04.146c-.046.038-.203.035-.203.035l-.334.053-.551.029-.264.002-.258.122c.004.072-.049.207-.027.398l.036.227c.001.024.134.257.185.327l.27.335.088.08.344.15c.109.006.572-.09.668-.095l.037.479c0 .228.023 2.054.035 2.282l.019.6zm6.851-3.939l.035.671c.002.048.087.512.119.667l.111.511.097.247.278.49.274.406.458.481.265.251.349.234.26.155.172.075.68.133c.073.008.963.022 1.275.018l.336-.017c.095-.017.827-.271.922-.3l.415-.106.49-.278.08-.088.075-.184c-.002-.048-.081-.392-.11-.499l-.093-.163-.088-.08-.26-.155-.172-.075-.504.014-.515.039-.747.207c-.035.014-.512.099-.667.119l-.084.004-.604-.053c-.073-.02-.43-.17-.517-.226-.025-.011-.214-.181-.265-.239-.063-.057-.243-.288-.269-.323l-.097-.247c-.017-.095-.002-.493-.006-.577l.314.02 1.36.037c.144.005 1.371.013 1.515.005.109.006.927.036 1.023.031l.312-.004.275-.026c.048-.002.225-.072.247-.097l.159-.177.087-.173.146-.428.062-.424-.016-.54c-.006-.108-.104-.379-.105-.391-.028-.083-.347-.655-.487-.816-.038-.046-.468-.444-.618-.557-.088-.08-.388-.292-.438-.326l-.703-.348-.342-.102-.256-.071c-.085-.02-.448-.061-.508-.058l-.42.022-.679.119-.247.097-.411.19-.486.362c-.092.077-.542.449-.644.55l-.092.089-.234.349-.155.26-.226.517-.071.256c-.019.097-.06.46-.057.52zm2.075-.541l.008-.085.155-.26.318-.353c.069-.052.348-.246.418-.274.093-.053.624-.261.742-.291l.131-.019.121.006c.073.008.461.084.535.116.122.042.592.282.678.325l.177.159.185.327.023.215-.001.216c-.01.037-.124.163-.159.177l-.42.022h-1.611c-.049-.009-.531-.044-.688-.048l-.508-.058-.089-.092-.016-.083zm13.11 1.986c.006.108.094.644.123.751l.11.499c.03.119.169.472.195.507.038.046.342.331.441.398.062.045.308.152.344.15l.457.012.348-.018.633-.069.163-.093.08-.088c.044-.086.115-.331.114-.343-.002-.048-.098-.271-.15-.341l-.205-.242-.237-.156-.172-.075-.352-.066-.172-.075-.093-.163-.044-.839c.004-.156.071-1.17.093-1.447l.066-.34.074-.425c-.003-.06.044-.543.053-.604-.002-.048.042-.351.062-.424l.066-.34c.047-.255.244-1.095.274-1.204.028-.146.181-.683.212-.768.03-.11.348-.932.367-1.041l.005-.373-.068-.381c-.038-.046-.106-.187-.219-.289l-.198-.11-.172-.075-.276.002-.227.024c-.036.002-.138.127-.159.177-.044.074-.26.554-.313.689l-.291.869c-.096.233-.374.897-.654 1.525l-.268.615-.292.628-.163.093-.084.004c-.097-.007-.915-.036-1.011-.032l-.336.017c-.024.001-.437.143-.591.199l-.247.097-.49.278c-.046.038-.376.404-.477.53-.057.063-.326.438-.393.537l-.167.261-.23.433-.301.689c-.052.159-.204.708-.212.78l.008.384.036.455c.002.036.074.273.101.331l.093.163.27.335.088.08.26.155.44.145.552-.017.539-.04c.071-.016.589-.223.754-.292l.243-.181c.216-.24 1-1.11 1.113-1.248l.23-.433.159-.177.047-.014.049.009zm-1.377-1.972l.085.008.088.08-.075.172-.23.433c-.132.235-.518.904-.539.966l-.326.438-.239.265-.323.269-.243.181-.214.047.029-.374.15-.344.38-.789.155-.26.234-.349.159-.177c.069-.064.288-.243.335-.27.081-.052.42-.25.49-.278l.083-.016zm14.724 2.287l.024.239c.002.036.14.389.194.495.055.129.256.54.283.586l.177.159.361.234c.025.011.327.055.424.062l.252-.013.331-.101c.083-.028.743-.279.826-.295.083-.028.68-.107.763-.124l.247-.097.163-.093c.08-.076.538-.521.64-.634.138-.127.523-.568.569-.619.056-.087.388-.633.464-.781l.071-.256c.039-.182.134-.656.132-.692l-.01-.432-.033-.407c-.017-.095-.225-.625-.292-.754l-.362-.486c-.102-.103-.467-.432-.542-.477-.137-.101-.629-.304-.689-.301l-.373-.005-.454.048-.521.147-.066-.117-.055-.598c.009-.061.053-.604.049-.676l.052-.844.013-1.359c-.002-.048-.071-.213-.097-.247-.026-.035-.141-.161-.279-.286l-.262-.191-.172-.075-.336.005-.321.077-.09 1.05-.001.673c-.049.435-.197 1.994-.221 2.223l-.124.848-.141.765-.199 1.032-.062.424-.071.256-.137.608-.066.34-.062.424.002.264zm3.733-3.344l.168-.009c.037.022.151.124.177.171.038.046.237.396.278.49l.014.035-.009.049-.066.34c-.02.073-.182.43-.226.517-.054.111-.275.483-.309.533-.079.1-.648.719-.795.883l-.255.182-.163.093-.415.106-.394.045.041-.363.301-.689.229-.445.155-.26c.033-.062.28-.616.301-.689l.167-.261c.044-.074.329-.378.398-.441.011-.025.184-.154.243-.181l.163-.105zm5.333 6.153l.014.264.101.331.353.318.172.075.348-.006.335-.029.163-.093.486-.362.402-.358c.08-.088.364-.392.397-.453l.401-.61.314-.437c.079-.1.408-.466.477-.53l.163-.093.41-.202.08-.088c.035-.026.076-.148.075-.172l-.031-.587c.01-.037.172-.394.238-.517l.384-.705.309-.521.15-.344.372-.945c.032-.086.272-.783.291-.869.033-.062.212-.54.233-.601l.142-.512-.027-.515-.185-.327-.189-.158-.344-.15-.252.001-.251.025c-.024.001-.138.127-.159.177l-.071.256-.375.873c-.032.074-.192.695-.212.768l-.158.429c-.021.061-.116.307-.15.344l-.154.272-.385.693-.309.521-.131.031-.121-.018-.181-.243-.842-1.399c-.026-.047-.323-.44-.362-.486-.026-.047-.239-.444-.278-.49-.013-.023-.202-.194-.265-.239l-.438-.326-.34-.066-.18.009-.247.097-.158.189.013.252.097.247c.066.117.397.701.475.817l.181.243.274.418c.093.163.91 1.551 1.015 1.714.04.07.427.591.455.661l.033.167-.015.169c-.088.161-.519.892-.619 1.042l-.393.537-.234.349-.323.269-.816.716-.159.177z" sketch:type="MSShapeGroup"/></g></svg>
