<svg xmlns="http://www.w3.org/2000/svg" viewBox="0 0 500 84.8" enable-background="new 0 0 500 84.8"><path fill-rule="evenodd" clip-rule="evenodd" fill="#fff" d="M458.2 7.3c-.5 5.9-1.8 11.6-4.9 16.8-.8 1.4-1.7 2.8-2.6 4.2-.7 1.1-1.5 2-2.7 2.7-.8.4-1.3 1.4-1.8 2.2-1.3 2.2-3.9 2.9-6 1.4-.3-.2-.5-.6-.6-1l-3.1-9.2c-.2-.6-.5-1.2-.9-2.1-.9 2.2-1.7 4.1-2.5 6-1.6 3.9-3.2 7.8-4.7 11.7-.3.7-.2 1.4-.2 2.3-1.8.9-3.3.1-4.9-.6-.5-2.3-.3-4.6.3-6.8.4-1.6 1.1-3.1 1.4-4.7l1.5-7.8c.2-1 .6-2.1 1.3-2.9 1.4-1.8 1.6-3.9 2-6 .2-1 .4-2 .8-2.9.7-1.6 1.6-2.1 3.3-1.7 1.1.3 2 .8 3 1.3.2.1.3.4.4.6l4.9 15c.3 1 .5 1.9.9 3.3.5-.6 1-.9 1.2-1.3.5-2 1.8-3.6 3.1-5.1 2.2-2.6 4.1-5.4 4.5-8.9.2-1.4.4-2.7.8-4.1.3-1.1.7-2.3 1.2-3.3.7-1.5 2.9-1.7 3.5-.1.1.3.5.6.8 1zm-109.7 17.2c.4 2.6.8 5.1 1.4 7.7.3 1.3 1.3 2.2 2.6 2.8 1 .4 1.9.4 2.7-.5.7-.8 1.4-1.4 2-2.2 1.6-2 3.2-4 4.9-6 1.1-1.2 2.4-2.3 3.6-3.4l.3.2c.1.4.2.7.1 1.1-.2 2-.3 4-.6 6-.2 2.1-.7 4.2-.7 6.3-.1 2.3 1.4 3.8 3.5 4 .9-1.2 1.5-2.8 1.6-5 .3-4 .5-7.9 1-11.9.4-2.6.3-5.3-.7-7.8-.7-.3-1.3-.6-2-.8-1.2-.4-2.3-.3-3.1.8-.9 1.1-1.8 2.2-2.6 3.3-1.8 2.5-3.6 5-6.4 6.3-.5 1.2-.8 2.5-2.5 2.5l-.5-4.6c-.4-3.2-1-6.3-2.7-9.1-.3-.4-.7-.9-1.1-1-1-.3-2.1-.4-3.1-.6-4.4 5.5-8 11.3-9.5 18.2-.1.5-.3 1-.6 1.4-1.2 1.9-2.4 3.8-3.5 5.7-1.2 2-2.1 4.2-2.3 6.7 1.1.6 2.1 1.2 3.3 1.8 1.6-2.7 3.1-5.1 4.5-7.6 1.2-2.2 2.3-4.4 2.4-7 0-.6.6-1.3 1-1.9.5-.7 1.1-1.4 1.5-2.2.7-1.5 1.2-3.1 1.8-4.6.5-1.3 1.4-2.4 3-3.1.3 1.6.5 3.1.7 4.5zm-181.5-3.2c5.2-.3 10.3-.6 15.7-.9.1-.8.4-1.7.3-2.5-.2-1.4-1.4-2.3-3.3-2.4-1.8-.1-3.6.1-5.3.3-3.3.5-6.6 1.6-9.8-.1-1.8.9-2.3 2.4-2.2 4.1.1 2.7-.1 5.4-.9 8.1-.8 2.5-1.6 5.1-1.2 7.9-1.8.1-1.5 1.9-2.4 2.7 1 1.5 1 3.1.6 4.8-.5 1.8-1.1 3.6-1.5 5.4-.4 1.8-.4 3.5.9 5.1 5.9.2 11.8.3 17.5-1.8-.2-2 .2-4-.8-5.9-2 .1-1.1 2.3-2.4 3-3.7.1-7.5.8-11.1-.1.2-2.1.4-4 .7-5.8.2-1 .6-1.9.9-2.8 3.5.1 6.7.1 9.7-1.1.9-2.6.2-3.9-2.4-4.1-.7-.1-1.4-.1-2.1 0-1.4.1-2.8.2-4.3.3 1.1-4.8 1.6-9.7 3.4-14.2zm333 23.5v2c-.5 2.4-1 4.8-1.5 7.4-.6.2-1.4.6-2.2.5-2.5-.3-5 .4-7.4.8l-12.4 1.5c-4.2.6-8.4 1.6-12.6 2.3-4.6.7-9.2 1.2-13.7 1.8-4.8.6-9.7 1.1-14.4 2.3-2.2.5-4.5.2-6.8.5-3.6.5-7.3 1.1-10.9 1.9-8.6 1.9-17.3 3.1-26.1 3.9-5.3.5-10.6.9-15.9 1-5.8.1-11.6-.3-17.4-.4-9.2-.2-18.3-.6-27.4 1.3-3.2.7-6.3 1.6-9.5 2-4.8.5-9.6.7-14.4.7-8.5 0-16.9-.2-25.4-.4-13.4-.3-26.8.4-40.2.9-8.2.2-16.4.2-24.6.2l-6.1-.6-10.9.2-5.1-.1c-1.1 0-2.1.1-3.2.2-3.1.3-6.1.8-9.2.8-6.3.1-12.6-.1-18.9-.1-3.8 0-7.7.4-11.5.1-5.6-.5-11.1.5-16.6 1-5.3.5-10.6.4-16 .5-3 .1-6-.1-8.9-.1-8.2-.1-16.3-.2-24.5-.2-3 0-5.9.5-8.9.7-7 .5-14 .9-21 1.5-2.6.2-5.2.8-7.8 1.1-2.4.3-4.9.7-7.3.8-4.1.2-8.2 0-12.3.3-1.8.1-3.6.8-5.2 1.4-2.2.9-4.3 1.3-6.6 1.1-1.3-.1-2.8 0-4.1.4-2.3.7-4.5.6-6.7 0-1.7-.4-3.5-.8-5.6-1.2-.2-1.7-.5-3.5-.5-5.4-.3-3.3-.3-7-.3-10.4.5-.7 1-1.1 1.2-1.6.5-1.2 1.4-1.7 2.6-1.6 1 0 1.9 0 2.9.2 2 .3 3.8 0 5.7-.7 1.1-.4 2.4-.5 3.6-.6 2.2-.3 4.4-.6 6.5-.8 5.9-.4 11.8-.9 17.7-1 3.7-.1 7.3-.6 10.8-1.4.9-.2 1.8-.3 2.8-.5-.4-10 .4-19.9-.8-30-.5.3-.9.5-1.2.7-5.3 3.7-9.4 8.4-12 14.3-.6 1.3-1.2 2.6-2 3.9-.8 1.3-2 2.2-3.9 2.3-.4-1.4-.9-2.7-1.1-4.1-.5-3.6-.8-7.3-1.2-10.9-.3-2.5-.7-5-2-7.7-.8 1.3-1.8 2.2-2.1 3.4-.8 2.5-1.4 5.1-1.8 7.7-.5 2.9-1.5 5.7-3.1 8.2-1.6 2.5-3.3 5.1-3.8 8.1-.2 1.2-1 1.9-2.6 1.8.1-1.1.2-2.2.4-3.3.2-.9.5-1.8 1-2.6 2.9-5 4.5-10.4 6.1-15.9.9-3.2 2-6.3 3.8-9 .3-.5.8-.9 1.3-1.4.2-.3.5-.6.6-.9.3-.6.6-1.3.9-2.2.6.7 1.2 1.1 1.6 1.7 1.8 2.4 2.3 5.2 2.6 8.1.5 4.1.8 8.2 1.1 12.2 0 .2.1.4.1 1 .4-.5.7-.8 1-1.2l4.2-6.5c1.9-3 4.1-5.7 7.1-7.8 1.4-1 2.6-2.3 3.9-3.5 2.3-2.2 3.5-2 4 1.1.6 3 .9 6.1.9 9.1.1 4.6-.3 9.2-.4 13.7 0 2 .2 4.1.3 6.1v3.2c6.1-.5 12.2-1 18.2-1.5 1.8-5 5-9.1 7.5-13.6.2-.4.3-.9.4-1.4.3-1.1.3-2.3.8-3.2.4-.6 1.4-.8 2.2-1.1 4.9-6.3 8.4-13.5 14.2-19.3 1.1.4 1.4 1.3 1.6 2.2.3 1.4.5 2.9.5 4.3-.1 8.6.7 17.2 1.7 25.7.3 2.6.2 4-.7 5.7h4.7c4.2 0 8.4.2 12.5.1 6.7-.2 13.5-.2 20.2-1 3.9-.5 7.7-.9 11.6-.9 5.6.1 11.1.4 16.6.4 6.2 0 12.4-.1 18.5-.3l4.9-.9c3.7-.1 7.5-.1 11.2 0 8.1.1 16.2.5 24.2.5 8-.1 15.9-.6 23.9-.8 6.4-.2 12.9-.3 19.3-.4h1.7c-.8-1-1.5-1.8-2.3-2.7.4-1.5.8-3.1 1.2-4.8.5-2.7.9-5.4 1.4-8 .2-.8.8-1.5 1.2-2.3l-3.2-6.9c-.6-1.3-1.3-2.5-2.2-3.7-1.2-1.7-2.1-3.6-3.2-5.4 1.7-1.1 3.6-.9 4.5.4 2 3.2 3.8 6.5 5.7 9.7.2.3.4.7.5 1.1.1 0 .2 0 .2-.1l6.3-12.8c.3-.5.5-1.1.7-1.6.8-1.9 3.6-2.3 5-.7-.1 2.2-.8 4.2-1.9 6.1-1.4 2.4-2.9 4.8-4.2 7.3-.7 1.4-1 3-1.6 4.4-.9 2-1.9 3.9-2.9 5.9l-.4.9-1 5.6c-.1 1 0 2 0 2.7-.7 1.8-1.4 3.4-2.1 5.1.7 0 1.4.1 2 .1l23.4.2 14.9.3c3 0 6-.4 8.8-1.4 5.7-2 11.6-2.6 17.6-2.6l24.9.4c8.7 0 17.4-.4 26-.7 4.5-.1 8.7-1.5 13.1-2.2 7.9-1.3 15.9-2.2 23.9-3.4 2.9-.4 5.9-.9 8.8-1.6 4.4-1.1 8.8-1.7 13.2-1.9 4.3-.2 8.4-.7 12.5-2.1 2-.7 4.2-.7 6.4-1 .7-.1 1.4-.3 1.8-.3 2.2-3.9 3.3-8.1 5.9-11.5.3-1.1.6-2.2 1-3.4-1.5-1.6-1.7-3.8-1.9-6-.3-3.3-1.1-6.4-2.2-9.5-.6-1.5-.8-3.2-1.2-4.7 2.1-2.1 3.6-1.9 4.6.5 1.8 4.2 3 8.6 3.6 13.1 0 .2.1.5.1 1 4.2-5 6.3-10.8 8.6-16.7 1.4.2 2.7.5 4 .7.4 2.2.1 4.2-.7 6.2l-3.5 8.2c-.4.8-.9 1.6-1.6 2.2-1.8 1.5-2.9 3.5-3.7 5.6-.9 2.1-1.6 4.4-2.5 6.4-.8 1.8-1.9 3.5-2.9 5.3-.2.4-.5.8-.8 1.5 2.8-.1 5.5-.1 8.1-.4 2.2-.2 4.4-.7 6.6-1.1 3-.6 4.5.4 5.1 3.4l.6 4c.7 1 1.1 2 1.4 2.9zm-410-6.9c3.2.2 6.2.4 9.3.6-.2-4.5-.4-8.6-.7-12.8l-.4-.1c-1 .7-1.2 2-1.9 3s-1.4 2.1-2.1 3.2l-2.2 3.2c-.7.9-1.4 1.9-2 2.9zm11.3 18.9c-.3-1.4-.6-2.5-.7-3.7-.1-2.3-.1-4.6-.1-6.9 0-1.1-.2-2.2-.3-3.5-4.7.2-9.2.4-14 .6-2.5 4.5-5.1 8.9-7.6 13.5h22.7zm308.3-15.7c-1.6.6-3 1.1-4.6.3 0-2.7.9-5.4-.2-8.4-.6.3-1.2.5-1.7.8-.8.5-1.5.8-2.5.6-.6-.1-1.5.1-2 .5-1.2 1-2.3 1.1-3.6.2-.8-.5-1.5-.5-2.1.2-.9 1-1.7 2-2.4 3-.8 1.2-1.5 2.6-2.2 3.9-.5.9-1.2 1.3-2.3 1.1l-2.4-.4c-.7-1.4-.6-2.8.3-3.9 2.2-2.6 4.1-5.5 5.6-8.5.5-1 1.2-2 1.7-3.1 1-2.6 2.5-4.8 4.8-6.4.3-.2.5-.7.7-1.1 1.6-4 3.9-7.6 6.5-11h3.7c3.7 10.5 3.9 21.3 2.7 32.2zm-4.6-12.7c-.5-3.4.8-7.2-1.4-10.6-2.1 2.8-4.2 5.3-5.3 8.5-.3.9-.7 1.5-1.4 2s-1.3 1.1-1.1 2.2c2.7 1 5.2-.8 7.8-.5.5-.5.9-1 1.4-1.6zm-155.7 2.5c2.3 5.6.9 10.7-2.3 15.5-.3.4-.8.6-1.3.9-.7.4-1.4.7-2 1.2-1.5 1.4-3.1 1.6-5 1.2l-5.5-1.2-.6-2.4c-.1-.3-.2-.7-.1-1 1.1-4.4 1.1-8.9 1.4-13.3.2-3.2.4-6.4 1.6-9.4 2-5.3 6-8.3 11.5-9.3 1.1-.2 2.3.1 3.4.2 1.9 6.1.7 11.8-1.1 17.6zm-3.3 2.1c-3.6.1-5.7 2.7-8.3 4.6.2 2.7-1.3 5.2-.5 7.9 2.9.7 7.9-2.7 8.3-5.5.2-1.5.5-3 .9-4.6.2-.8.4-1.6-.4-2.4zm1.6-16.7c-2.7.1-4.4 1.3-5.7 3.1-1.3 1.7-2 3.8-2.3 5.9-.3 1.8-.4 3.5-.6 5.4 1.7-.6 3-1.1 4.4-1.5 2.1-.7 3.5-2.1 3.7-4.2.3-2.8.3-5.7.5-8.7zm-110.8 15.2c-.2 2.7-.7 5.4-1 8.1-.2 1.8-1 3.2-2.3 4.5-2.9 3-5.7 6-8.5 9-.9 1-1.9 1.8-3 2.8-1.2-.3-2.3-.6-3.4-.9-.4-3.6-.3-7 .9-10.2.1-.3.3-.6.2-.9-.6-3.4.1-6.7.6-10 .4-2.4.7-4.8 0-7.2-.2-.7.1-1.6.5-2.2 1.1-1.7 1.7-3.6 2.1-5.6.4-2.1 1-2.6 3.1-2.6 2 0 4.1.1 6.1.4 2.4.4 3.8 2 4.3 4.4.8 3.4.7 6.9.4 10.4zm-4.7-10.8c-1.7-.1-3.4-.2-5.2-.3-.7 0-1.2.3-1.3 1.1-.4 2.4-1 4.7-1.2 7.1-.4 4.8-.3 9.6-1.4 14.3-.5 2.1-.6 4.3-.9 6.5.2.1.4.2.5.2.7-.7 1.5-1.3 2.1-2l5.7-6.4c.9-1 1.7-2.1 1.9-3.6.4-2.8.9-5.5 1.2-8.3.4-2.9.1-5.7-1.4-8.6z"/></svg>